<svg xmlns="http://www.w3.org/2000/svg" xmlns:xlink="http://www.w3.org/1999/xlink" id="icon-twitter" viewBox="0 0 50 50" enable-background="new 0 0 50 50" xml:space="preserve" width="100%" height="100%" version="1.1" style="fill: #e52630;">
    <title>social_icons</title>
    <circle class="twit-cls-2" cx="25" cy="25" r="25"></circle>
    <path style="fill: white;" class="twit-cls-3" d="M35.89,18.22A5.8,5.8,0,0,0,38.32,15a10.74,10.74,0,0,1-3.52,1.42,5.39,5.39,0,0,0-4-1.85,5.7,5.7,0,0,0-5.54,5.84,6.11,6.11,0,0,0,.14,1.33,15.47,15.47,0,0,1-11.42-6.1,6.07,6.07,0,0,0-.75,2.94,5.94,5.94,0,0,0,2.46,4.86,5.34,5.34,0,0,1-2.51-.73v.07A5.77,5.77,0,0,0,17.6,28.5a5.16,5.16,0,0,1-1.46.21,5.21,5.21,0,0,1-1-.1,5.59,5.59,0,0,0,5.17,4.06,10.75,10.75,0,0,1-6.88,2.5,10.46,10.46,0,0,1-1.32-.08,15.1,15.1,0,0,0,8.49,2.62c10.19,0,15.76-8.9,15.76-16.62,0-.25,0-.51,0-.76a11.58,11.58,0,0,0,2.76-3,10.62,10.62,0,0,1-3.18.92Zm0,0"/>
  </svg>


