<svg xmlns="http://www.w3.org/2000/svg" xmlns:xlink="http://www.w3.org/1999/xlink" id="icon-youtube" viewBox="0 0 50 50" enable-background="new 0 0 50 50" xml:space="preserve" width="100%" height="100%" version="1.1" style="fill: #e52630;">
   	<title>Comic Relief Youtube</title>
    <desc>Visit Comic Relief Youtube</desc>
	<circle xmlns="http://www.w3.org/2000/svg" class="cls-2" cx="25" cy="25" r="25"></circle>
    <path style="fill:white;" xmlns="http://www.w3.org/2000/svg" class="cls-3" d="M17.82,31.52l0-4.79h1.79V25.24H14.44v1.5h1.75v4.75c0,2.61,0,4.77,0,4.8s.2,0,.79,0h.78l0-4.79Zm14.9-.34a7.56,7.56,0,0,1,.06-1.36.7.7,0,0,1,.73-.56.65.65,0,0,1,.65.4c.09.17.09.25.11.89v.7h-.77c-.66,0-.77,0-.79-.06Zm1.44,5.16a2,2,0,0,0,1.48-1.46,5.23,5.23,0,0,0,.08-.79l0-.56H34.28l0,.5c0,.57-.08.77-.29,1a.78.78,0,0,1-.89,0c-.31-.21-.39-.57-.38-1.74v-.83h3l0-1.23a4.15,4.15,0,0,0-.28-2.07,2.18,2.18,0,0,0-2.66-1,2,2,0,0,0-1.39,1.56,14,14,0,0,0-.07,2.53c0,2.46,0,2.57.26,3.07a2.24,2.24,0,0,0,2.59,1.08Zm-6-1.4a.53.53,0,0,0,.2-.29,12.53,12.53,0,0,0,.06-2.52,9.53,9.53,0,0,0-.08-2.48c-.18-.37-.64-.4-1.06-.08l-.14.11v5l.14.11a.77.77,0,0,0,.89.13Zm.91,1.42a1.19,1.19,0,0,0,.63-.62c.24-.53.24-.55.24-3.55a19.7,19.7,0,0,0-.07-3c-.2-.85-.63-1.23-1.35-1.17a1.7,1.7,0,0,0-1.11.56,2.65,2.65,0,0,1-.33.29s0-.82,0-1.81V25.22H25.67V36.33h1.41V36c0-.25,0-.37,0-.37a2.05,2.05,0,0,1,.35.29,1.52,1.52,0,0,0,1.62.49Zm-7.52,0a2.66,2.66,0,0,0,.89-.62,1.13,1.13,0,0,1,.28-.24s.05.11.05.43v.43h1.41V28.09H22.81v6.35l-.3.3a1.09,1.09,0,0,1-.49.36c-.25.07-.41,0-.52-.16s-.08-.2-.09-3.49V28.09H20v3.57c0,3.89,0,4,.22,4.34a1.09,1.09,0,0,0,1.38.32Zm.6,3.44-2.42-.06c-2.76-.1-4.65-.21-5-.28a2.79,2.79,0,0,1-1.49-.91,5.09,5.09,0,0,1-1-2.81,42.94,42.94,0,0,1,0-9.38,4.6,4.6,0,0,1,1.17-2.82,2.42,2.42,0,0,1,1.18-.69,129.46,129.46,0,0,1,13.74-.36c2.78.06,5.79.19,6.59.28a2.73,2.73,0,0,1,2.26,1.67,7.87,7.87,0,0,1,.65,3.21A36.53,36.53,0,0,1,38,31.68a31.41,31.41,0,0,1-.35,4.79,4.11,4.11,0,0,1-1.3,2.44,2.89,2.89,0,0,1-1.78.59l-.67,0c-.46,0-2.93.14-4.28.17-2,.06-5.53.08-7.44,0ZM19.7,21.46c0-.06,0-3.3,0-3.76a5.08,5.08,0,0,0-.48-2.24c-.14-.38-.38-1.13-.55-1.65-1.19-3.8-1.13-3.58-1-3.58.78,0,1.75,0,1.76,0s.26.93.57,2.06l.56,2.08s.18-.64.4-1.46c.44-1.72.69-2.67.7-2.68a6,6,0,0,1,1,0h.8l0,.13c0,.1-.56,1.94-1.13,3.81l-.35,1.18-.35,1.17-.12.37v2.28c0,2.14,0,2.28-.07,2.3a11.48,11.48,0,0,1-1.68,0ZM30,21.59a.91.91,0,0,1-.78-.52c-.2-.39-.2-.39-.2-4.32V13.09h1.59l0,3.38c0,3.67,0,3.58.23,3.64s.42-.06.7-.34l.27-.27v-6.4h1.59v8.39l-.11,0a12.34,12.34,0,0,1-1.43,0c-.06,0-.07-.07-.07-.4V20.7l-.23.22a2,2,0,0,1-1.6.67ZM26,20c.27-.21.27-.23.29-2.58a14.44,14.44,0,0,0,0-2.39c-.07-.34-.21-.5-.46-.57a.6.6,0,0,0-.74.46,45.86,45.86,0,0,0,0,4.72A.59.59,0,0,0,26,20Zm-.62,1.6a2.25,2.25,0,0,1-1.68-1.08c-.32-.58-.35-.89-.33-3.46a10.41,10.41,0,0,1,.1-2.4,2.11,2.11,0,0,1,1.12-1.42,2.29,2.29,0,0,1,2.34.14,2.09,2.09,0,0,1,.9,1.39,13.49,13.49,0,0,1,.07,2.52c0,2.45,0,2.59-.26,3.12a2.23,2.23,0,0,1-1.35,1.12,3,3,0,0,1-.9.08Zm0,0"></path>
  </svg>
