<svg viewBox="0 0 48 48" fill="none" xmlns="http://www.w3.org/2000/svg">
<path fill-rule="evenodd" clip-rule="evenodd" d="M24 48C37.2548 48 48 37.2549 48 24C48 10.7451 37.2548 0 24 0C10.7452 0 0 10.7451 0 24C0 37.2549 10.7452 48 24 48ZM12.8354 7.91736C13.9153 7.49304 15.1505 7.20435 16.9593 7.11902C18.7725 7.03064 19.3505 7.01086 23.9673 7.00208C28.5842 6.99329 29.1666 7.01331 30.9761 7.09155C32.7856 7.16968 34.0215 7.45496 35.1034 7.87354C36.223 8.30457 37.1723 8.88428 38.1182 9.82788C39.064 10.7714 39.6472 11.7175 40.084 12.8351C40.5081 13.916 40.796 15.1471 40.882 16.96C40.9681 18.7728 40.9888 19.3516 40.9976 23.9674C41.0065 28.5833 40.9878 29.1626 40.9086 30.9772C40.83 32.7853 40.5454 34.0219 40.1265 35.103C39.6944 36.223 39.1144 37.1716 38.1722 38.1182C37.2301 39.0648 36.2825 39.6476 35.1649 40.0847C34.0844 40.5071 32.856 40.7968 31.0428 40.8827C29.2296 40.9688 28.6485 40.9891 24.0333 40.998C19.4182 41.0068 18.8358 40.9885 17.0262 40.9093C15.2168 40.8301 13.9802 40.5452 12.899 40.1273C11.777 39.6941 10.8298 39.1151 9.88354 38.1722C8.93732 37.2295 8.35352 36.2826 7.9173 35.1649C7.49298 34.0848 7.20532 32.8499 7.11902 31.0415C7.03125 29.2279 7.01086 28.6492 7.00201 24.0327C6.99316 19.4161 7.01086 18.8345 7.09076 17.0247C7.17065 15.2148 7.45422 13.9785 7.87274 12.8964C8.30524 11.7771 8.88562 10.8291 9.82812 9.8833C10.7706 8.93738 11.7178 8.35291 12.8354 7.91736ZM14.0006 37.2729C14.6003 37.5035 15.5003 37.7789 17.1578 37.851C18.951 37.9285 19.4865 37.9469 24.0262 37.937C28.5659 37.9271 29.1031 37.9094 30.8959 37.8251C32.5513 37.7462 33.4514 37.4674 34.0497 37.2339C34.8433 36.9238 35.4087 36.5559 36.0023 35.9589C36.596 35.3618 36.9649 34.7958 37.2709 34.0018C37.5018 33.4014 37.7765 32.5011 37.8489 30.8435C37.9274 29.0521 37.9434 28.5132 37.9352 23.9756C37.9271 19.4379 37.9077 18.9004 37.8224 17.1075C37.7441 15.4497 37.4661 14.5511 37.2318 13.9537C36.9217 13.1588 36.5535 12.5947 35.9561 12.0004C35.3587 11.4061 34.7933 11.0386 33.9987 10.7325C33.4 10.501 32.4987 10.2267 30.8425 10.1545C29.049 10.0757 28.5104 10.0587 23.9725 10.0686C19.4344 10.0784 18.8973 10.0955 17.1044 10.1804C15.4476 10.2593 14.5486 10.5374 13.9496 10.7714C13.1564 11.0814 12.5903 11.4493 11.9969 12.0466C11.4037 12.644 11.0351 13.2087 10.7291 14.004C10.4989 14.6035 10.2218 15.5045 10.1511 17.1606C10.0726 18.9528 10.0552 19.49 10.0651 24.0286C10.075 28.5673 10.0927 29.1051 10.1769 30.8966C10.2545 32.5541 10.535 33.4531 10.7679 34.0529C11.0779 34.8453 11.4451 35.4132 12.0428 36.0051C12.6406 36.597 13.2064 36.9669 14.0006 37.2729ZM31.3623 16.0471C31.1376 15.7119 31.0173 15.3177 31.0166 14.9142C31.0157 14.3733 31.2297 13.8541 31.6115 13.4709C31.9932 13.0878 32.5116 12.8719 33.0525 12.8708C33.456 12.87 33.8507 12.9889 34.1866 13.2124C34.5226 13.4359 34.7847 13.754 34.9398 14.1266C35.0949 14.499 35.1361 14.9092 35.0581 15.3051C34.9802 15.7009 34.7865 16.0648 34.5017 16.3507C34.2169 16.6365 33.8538 16.8314 33.4581 16.9109C33.0626 16.9904 32.6523 16.9507 32.2792 16.7969C31.9061 16.6432 31.5871 16.3822 31.3623 16.0471ZM24.0163 32.7285C19.1962 32.7377 15.2807 28.8383 15.2712 24.0171C15.262 19.1965 19.1621 15.2804 23.983 15.2709C28.8039 15.2614 32.7203 19.1619 32.7295 23.983C32.7387 28.8042 28.8365 32.7194 24.0163 32.7285ZM19.282 20.8607C18.6612 21.7938 18.331 22.8901 18.3332 24.0109C18.3346 24.7551 18.4825 25.4917 18.7687 26.1787C19.0548 26.8657 19.4734 27.4896 20.0007 28.0149C20.528 28.54 21.1536 28.9562 21.8417 29.2396C22.5298 29.5229 23.267 29.6681 24.0112 29.6665C25.132 29.6643 26.2269 29.3297 27.1576 28.7052C28.0883 28.0807 28.8129 27.1942 29.2397 26.158C29.6666 25.1216 29.7765 23.9819 29.5557 22.8832C29.3348 21.7844 28.7932 20.7758 27.9991 19.9847C27.205 19.1938 26.1942 18.6561 25.0945 18.4397C23.9948 18.2231 22.8557 18.3376 21.821 18.7686C20.7864 19.1996 19.9028 19.9276 19.282 20.8607Z" fill="white"/>
</svg>
