<svg width="36" height="36" viewBox="0 0 36 36" fill="none" xmlns="http://www.w3.org/2000/svg">
<path d="M35 18.0623C35 8.67343 27.3888 1.06225 18 1.06225C8.61117 1.06225 1 8.67343 1 18.0623C1 26.0349 6.48862 32.7245 13.8932 34.5616V23.2572H10.3877V18.0623H13.8932V15.8238C13.8932 10.0375 16.5117 7.35559 22.1925 7.35559C23.2695 7.35559 25.1278 7.56673 25.8881 7.77793V12.4872C25.4868 12.445 24.7899 12.4238 23.9241 12.4238C21.1366 12.4238 20.0595 13.4797 20.0595 16.225V18.0623H25.6123L24.6584 23.2572H20.0595V34.9377C28.477 33.9211 35 26.7539 35 18.0623Z" fill="black"/>
</svg>
