<svg width="36" height="36" viewBox="0 0 36 36" fill="none" xmlns="http://www.w3.org/2000/svg">
<path d="M27.1735 9.01362C25.5578 7.9603 24.3908 6.27396 24.0273 4.30864C23.9487 3.88396 23.9057 3.44689 23.9057 2.99963H18.7483L18.7403 23.6698C18.6536 25.9848 16.7488 27.8423 14.4134 27.8423C13.6879 27.8423 13.0039 27.6609 12.4022 27.344C11.0225 26.6178 10.0777 25.1711 10.0777 23.5066C10.0777 21.1159 12.0227 19.171 14.4134 19.171C14.8599 19.171 15.2875 19.2445 15.6925 19.3713V14.1061C15.2737 14.0493 14.8476 14.0136 14.4134 14.0136C9.1774 14.0143 4.91895 18.2728 4.91895 23.5074C4.91895 26.719 6.52369 29.5614 8.97198 31.2798C10.5141 32.3622 12.3898 33.0004 14.4127 33.0004C19.6472 33.0004 23.9057 28.7419 23.9057 23.5074V13.0259C25.9286 14.4776 28.4067 15.3335 31.0815 15.3335V10.1762C29.6407 10.1762 28.2989 9.74788 27.1742 9.01435L27.1735 9.01362Z" fill="black"/>
</svg>
