<svg width="36" height="36" viewBox="0 0 36 36" fill="none" xmlns="http://www.w3.org/2000/svg">
<path d="M35.2374 9.33522C34.8161 7.78366 33.6332 6.57437 32.0553 6.15312C29.2681 5.3905 17.9868 5.3905 17.9868 5.3905C17.9868 5.3905 6.7319 5.3905 3.94472 6.15312C2.39316 6.57347 1.18296 7.78366 0.736287 9.33522C0 12.1224 0 17.9864 0 17.9864C0 17.9864 0 23.8503 0.736287 26.6648C1.18296 28.19 2.39316 29.4256 3.94472 29.8469C6.7319 30.6095 17.9868 30.6095 17.9868 30.6095C17.9868 30.6095 29.2681 30.6095 32.0553 29.8469C33.6332 29.4265 34.8161 28.19 35.2374 26.6648C36 23.8513 36 17.9864 36 17.9864C36 17.9864 36 12.1224 35.2374 9.33522ZM14.4107 23.4037V12.5954L23.7464 17.9864L14.4107 23.4037Z" fill="black"/>
</svg>
