<svg fill="#6F3AAB" xmlns="http://www.w3.org/2000/svg" viewBox="0 0 48 48"><path d="M31 30c-3.86 0-7 3.14-7 7s3.14 7 7 7 7-3.14 7-7-3.14-7-7-7zm0 10c-1.654 0-3-1.346-3-3s1.346-3 3-3 3 1.346 3 3-1.346 3-3 3zM35.74 23.823c5.071-5.071 5.705-12.687 1.415-16.977-4.291-4.292-11.907-3.657-16.978 1.414-3.627 3.627-4.971 8.551-3.879 12.634.022.748.006 1.48-.094 2.177-.081.616-.196 1.208-.378 1.726-.167.507-.449.98-.601 1.147l-8.64 8.64a2.002 2.002 0 002.83 2.83l8.64-8.64c.167-.152.641-.433 1.147-.601.518-.182 1.11-.297 1.726-.378.697-.1 1.429-.116 2.177-.094 4.084 1.092 9.008-.251 12.635-3.878zm-11.21.129c-1.116-.232-2.131-.737-2.938-1.544-.807-.807-1.313-1.822-1.544-2.938-.038-.28-.076-.56-.124-.837-.202-2.482.865-5.325 3.083-7.543 3.51-3.51 8.588-4.145 11.318-1.415s2.096 7.808-1.415 11.318c-2.218 2.218-5.061 3.285-7.543 3.083-.276-.048-.557-.086-.837-.124z"/></svg>
