<svg fill="#6F3AAB" xmlns="http://www.w3.org/2000/svg" viewBox="0 0 48 48"><path d="M45 19c0-.757-.428-1.45-1.105-1.789l-20-10a2.004 2.004 0 00-1.789 0l-20 10a2 2 0 00-.001 3.578l5.027 2.513A2 2 0 007 24v9a2 2 0 00.495 1.317C11.375 38.751 16.592 41 23 41s11.625-2.249 15.505-6.683A2 2 0 0039 33v-9a2 2 0 00-.132-.698L41 22.236V29a2 2 0 004 0v-9c0-.173-.029-.339-.07-.499.042-.162.07-.329.07-.501zm-22-7.764L38.528 19 23 26.764 7.472 19 23 11.236zm12 20.989C31.937 35.437 28.003 37 23 37s-8.937-1.563-12-4.775v-6.988l11.105 5.553a2.01 2.01 0 001.79-.001L35 25.236v6.989z"/></svg>
