<svg fill="#6F3AAB" xmlns="http://www.w3.org/2000/svg" viewBox="0 0 48 48"><path d="M45.414 23.586L42 20.172V13a2 2 0 00-4 0v3.172L25.414 3.586a2 2 0 00-2.828 0l-20 20A2 2 0 004 27h2v14a2 2 0 002 2h8a2 2 0 002-2v-8.983c.015-.838.373-5.017 6-5.017s5.985 4.179 6 5v9a2 2 0 002 2h8a2 2 0 002-2V27h2a2 2 0 001.414-3.414zM38 39h-4v-7c0-.09-.114-9-10-9s-10 8.91-10 9v7h-4V25c0-.192-.036-.373-.086-.549-.012-.04-.023-.079-.037-.119a2.007 2.007 0 00-.235-.47c-.012-.018-.028-.032-.041-.049a2.01 2.01 0 00-.328-.343c-.031-.025-.059-.051-.091-.075a1.97 1.97 0 00-.453-.253c-.01-.004-.018-.012-.028-.016L24 7.829l15.298 15.298c-.01.004-.018.012-.028.016a1.97 1.97 0 00-.453.253c-.032.023-.06.049-.09.074a2.01 2.01 0 00-.328.343c-.013.017-.028.031-.041.049-.1.144-.175.303-.235.47-.014.039-.025.078-.037.118A2 2 0 0038 25v14z"/></svg>
