<svg xmlns="http://www.w3.org/2000/svg" viewBox="0 0 600 600"><path d="M259.307 240.84L363.3 300.002 259.307 359.16V240.84zM600 300c0 165.685-134.315 300-300 300S0 465.685 0 300 134.315 0 300 0s300 134.315 300 300zm-101.056 0s0-65.16-8.314-96.391c-4.576-17.23-18.058-30.8-35.177-35.406-31.03-8.368-155.453-8.368-155.453-8.368s-124.423 0-155.452 8.368c-17.119 4.606-30.601 18.175-35.177 35.406-8.315 31.231-8.315 96.391-8.315 96.391s0 65.16 8.314 96.391c4.576 17.23 18.058 30.8 35.177 35.405 31.03 8.369 155.453 8.369 155.453 8.369s124.423 0 155.452-8.368c17.119-4.605 30.601-18.175 35.177-35.405 8.315-31.232 8.315-96.392 8.315-96.392z" fill="#fff"/></svg>
