<svg version="1.1" id="Content" xmlns="http://www.w3.org/2000/svg" x="0" y="0" viewBox="0 0 48 48" xml:space="preserve"><style></style><path d="M46.808 11.838c.07-.15.119-.312.15-.481.007-.04.017-.079.021-.119.004-.029.013-.056.015-.085.012-.159 0-.314-.023-.466-.005-.031-.014-.059-.021-.09a1.969 1.969 0 0 0-.183-.523c-.005-.01-.005-.021-.011-.031l-.007-.009a1.993 1.993 0 0 0-.353-.454c-.026-.026-.051-.051-.078-.075a1.98 1.98 0 0 0-.462-.308c-.024-.011-.049-.019-.073-.029a1.986 1.986 0 0 0-.506-.141c-.025-.004-.048-.011-.073-.013-.018-.002-.034-.008-.052-.009l-39-3a2.01 2.01 0 0 0-1.944 1.106 2.001 2.001 0 0 0 .297 2.217l6.2 6.975-8.124 1.741a1.999 1.999 0 0 0-.53 3.716l12.152 6.544 1.828 10.053a2 2 0 0 0 3.383 1.057l27-27c.021-.021.031-.05.052-.072.122-.132.232-.276.316-.439.01-.021.016-.043.026-.065zm-36.022-1.464l20.302 1.562-15.887 3.404-4.415-4.966zm8.499 23.513l-1.317-7.245a1.997 1.997 0 0 0-1.02-1.403l-8.213-4.423 30.062-6.442-19.512 19.513zM6.002 36a2 2 0 0 1-.896-3.79l4-2a2 2 0 1 1 1.789 3.579l-4 2a1.99 1.99 0 0 1-.893.211zm7.412.586a2 2 0 0 1 0 2.828l-4 4C9.023 43.805 8.512 44 8 44s-1.023-.195-1.414-.586a2 2 0 0 1 0-2.828l4-4a2 2 0 0 1 2.828 0z"/></svg>