<?xml version="1.0" encoding="utf-8"?>
<!-- Generator: Adobe Illustrator 24.3.0, SVG Export Plug-In . SVG Version: 6.00 Build 0)  -->
<svg version="1.1" id="Content" xmlns="http://www.w3.org/2000/svg" xmlns:xlink="http://www.w3.org/1999/xlink" x="0px" y="0px"
	 viewBox="0 0 48 48" style="enable-background:new 0 0 48 48;" xml:space="preserve">
<style type="text/css">
	.st0{fill:#FFFFFF;}
</style>
<path d="M39.614,34.777c-3.589-3.607-6.461-6.451-9.849-6.269c-1.9,0.103-3.622,1.137-5.264,3.161
	c-0.399,0.094-2.143-0.148-5.083-3.088c-2.941-2.941-3.188-4.682-3.088-5.083c2.023-1.641,3.058-3.363,3.16-5.263
	c0.186-3.429-2.663-6.262-6.27-9.85L12.42,7.586c-0.556-0.556-1.385-0.733-2.116-0.458c-3.648,1.368-6.128,4.289-6.979,8.224
	c-1.404,6.484,1.764,14.553,8.268,21.057c5.483,5.484,12.079,8.596,17.899,8.596c1.084,0,2.141-0.108,3.158-0.328
	c3.935-0.853,6.855-3.331,8.224-6.98c0.275-0.734,0.096-1.562-0.459-2.116L39.614,34.777z M31.802,40.767
	C26.717,41.87,19.89,39.049,14.42,33.58c-5.469-5.469-8.289-12.292-7.187-17.382c0.338-1.562,1.2-3.559,3.349-4.797
	c2.599,2.585,5.002,5.015,4.915,6.618c-0.038,0.71-0.624,1.523-1.74,2.417c-0.854,0.683-1.362,1.729-1.43,2.943
	c-0.09,1.628,0.576,4.343,4.264,8.03c3.688,3.688,6.41,4.354,8.031,4.264c1.215-0.067,2.26-0.575,2.942-1.429
	c0.894-1.117,1.707-1.703,2.417-1.742c1.64-0.077,4.034,2.318,6.617,4.915C35.361,39.566,33.364,40.428,31.802,40.767z M25,17
	c-1.104,0-2-0.896-2-2s0.896-2,2-2c5.141,0,10,4.86,10,10c0,1.104-0.896,2-2,2s-2-0.896-2-2C31,20.084,27.916,17,25,17z M43,23
	c0,1.104-0.896,2-2,2s-2-0.896-2-2c0-6.935-7.065-14-14-14c-1.104,0-2-0.896-2-2s0.896-2,2-2C34.084,5,43,13.916,43,23z"/>
</svg>
