<svg version="1.1" id="Content" xmlns="http://www.w3.org/2000/svg" x="0" y="0" viewBox="0 0 48 48" xml:space="preserve"><style></style><path d="M17 21c0 1.654-1.346 3-3 3s-3-1.346-3-3 1.346-3 3-3 3 1.346 3 3zm7-3c-1.654 0-3 1.346-3 3s1.346 3 3 3 3-1.346 3-3-1.346-3-3-3zm10 0c-1.654 0-3 1.346-3 3s1.346 3 3 3 3-1.346 3-3-1.346-3-3-3zm12-8v22c0 .215-.034.429-.103.632l-4 12a2.001 2.001 0 0 1-3.686.263L34.764 38H8c-3.364 0-6-2.636-6-6V10c0-3.364 2.636-6 6-6h32c3.364 0 6 2.636 6 6zm-4 0c0-1.159-.841-2-2-2H8c-1.159 0-2 .841-2 2v22c0 1.159.841 2 2 2h28a2 2 0 0 1 1.789 1.105l1.841 3.682L42 31.675V10z"/></svg>