<svg width="24" height="24" viewBox="0 0 24 24" fill="none" xmlns="http://www.w3.org/2000/svg">
<path d="M23.4045 5.91958C23.4395 5.84458 23.464 5.76358 23.4795 5.67908C23.483 5.65908 23.488 5.63958 23.49 5.61958C23.492 5.60508 23.4965 5.59158 23.4975 5.57708C23.5035 5.49758 23.4975 5.42008 23.486 5.34408C23.4835 5.32858 23.479 5.31458 23.4755 5.29908C23.4565 5.20708 23.427 5.11908 23.384 5.03758C23.3815 5.03258 23.3815 5.02708 23.3785 5.02208C23.3775 5.02058 23.376 5.01908 23.375 5.01758C23.328 4.93308 23.2675 4.85808 23.1985 4.79058C23.1855 4.77758 23.173 4.76508 23.1595 4.75308C23.09 4.69158 23.0135 4.63958 22.9285 4.59908C22.9165 4.59358 22.904 4.58958 22.892 4.58458C22.8125 4.55058 22.728 4.52658 22.639 4.51408C22.6265 4.51208 22.615 4.50858 22.6025 4.50758C22.5935 4.50658 22.5855 4.50358 22.5765 4.50308L3.0765 3.00308C2.677 2.97108 2.286 3.19058 2.1045 3.55608C1.9235 3.92108 1.9825 4.36008 2.253 4.66458L5.353 8.15208L1.291 9.02258C0.881497 9.11058 0.569497 9.44458 0.509997 9.85958C0.450997 10.2746 0.656997 10.6821 1.026 10.8806L7.102 14.1526L8.016 19.1791C8.0825 19.5451 8.3465 19.8436 8.7015 19.9546C8.8005 19.9856 8.901 20.0006 9.0005 20.0006C9.2615 20.0006 9.517 19.8981 9.7075 19.7076L23.2075 6.20758C23.218 6.19708 23.223 6.18258 23.2335 6.17158C23.2945 6.10558 23.3495 6.03358 23.3915 5.95208C23.3965 5.94158 23.3995 5.93058 23.4045 5.91958ZM5.3935 5.18758L15.5445 5.96858L7.601 7.67058L5.3935 5.18758ZM9.643 16.9441L8.9845 13.3216C8.9305 13.0226 8.7425 12.7641 8.4745 12.6201L4.368 10.4086L19.399 7.18758L9.643 16.9441ZM3.0015 18.0006C2.6345 18.0006 2.2815 17.7981 2.106 17.4476C1.859 16.9536 2.059 16.3531 2.5535 16.1056L4.5535 15.1056C5.0485 14.8576 5.6485 15.0591 5.8955 15.5531C6.1425 16.0471 5.9425 16.6476 5.448 16.8951L3.448 17.8951C3.304 17.9671 3.1515 18.0006 3.0015 18.0006ZM6.7075 18.2936C7.098 18.6841 7.098 19.3171 6.7075 19.7076L4.7075 21.7076C4.512 21.9031 4.2565 22.0006 4.0005 22.0006C3.7445 22.0006 3.489 21.9031 3.2935 21.7076C2.903 21.3171 2.903 20.6841 3.2935 20.2936L5.2935 18.2936C5.684 17.9031 6.317 17.9031 6.7075 18.2936Z" fill="#000000"/>
</svg>
