<svg width="36" height="36" viewBox="0 0 36 36" fill="none" xmlns="http://www.w3.org/2000/svg">
<path d="M10.9594 1.11877C9.15059 1.20411 7.91536 1.49278 6.83551 1.9171C5.71792 2.35265 4.77067 2.93711 3.82818 3.883C2.88569 4.82889 2.3053 5.77682 1.87282 6.89611C1.45427 7.97834 1.17071 9.2146 1.09081 11.0244C1.01091 12.8343 0.993227 13.416 1.00207 18.0326C1.01091 22.6492 1.03131 23.2278 1.11903 25.0414C1.20539 26.8499 1.49303 28.0848 1.91736 29.165C2.35358 30.2826 2.93737 31.2295 3.8836 32.1723C4.82983 33.1151 5.77708 33.6942 6.89909 34.1273C7.9803 34.5452 9.21689 34.8301 11.0264 34.9093C12.8359 34.9886 13.4183 35.0069 18.0335 34.9981C22.6487 34.9892 23.2298 34.9688 25.043 34.8828C26.8563 34.7968 28.0847 34.5071 29.1652 34.0848C30.2828 33.6476 31.2304 33.0648 32.1726 32.1183C33.1147 31.1717 33.6948 30.2231 34.1269 29.1031C34.5458 28.0219 34.8304 26.7853 34.9089 24.9772C34.9881 23.1626 35.0068 22.5832 34.998 17.9673C34.9892 13.3514 34.9684 12.7727 34.8824 10.9598C34.7964 9.14694 34.5084 7.91578 34.0844 6.83491C33.6475 5.71732 33.0644 4.77109 32.1185 3.82758C31.1726 2.88407 30.2233 2.30437 29.1037 1.87324C28.0218 1.4547 26.7859 1.16943 24.9764 1.09123C23.1669 1.01303 22.5845 0.992972 17.9676 1.00181C13.3507 1.01065 12.7726 1.03037 10.9594 1.11877ZM11.158 31.851C9.50045 31.7789 8.60046 31.5035 8.0007 31.273C7.20645 30.967 6.64068 30.5971 6.04296 30.0051C5.44523 29.4132 5.07803 28.8454 4.76795 28.0528C4.53504 27.4531 4.25454 26.5541 4.17702 24.8966C4.0927 23.1051 4.07502 22.5672 4.06516 18.0285C4.0553 13.4898 4.07264 12.9526 4.15118 11.1604C4.2219 9.50428 4.499 8.60327 4.72919 8.00384C5.03519 7.20858 5.40375 6.64383 5.99706 6.04644C6.59036 5.44906 7.15647 5.08117 7.9497 4.77109C8.54878 4.53717 9.44775 4.25905 11.1046 4.18016C12.8974 4.09516 13.4346 4.07816 17.9727 4.0683C22.5107 4.05844 23.0493 4.07544 24.8428 4.15432C26.4989 4.2264 27.4003 4.50079 27.999 4.73233C28.7936 5.03833 29.359 5.40588 29.9564 6.0002C30.5538 6.59453 30.922 7.1586 31.2321 7.95352C31.4664 8.55091 31.7445 9.44954 31.8227 11.1074C31.908 12.9002 31.9274 13.4378 31.9356 17.9755C31.9437 22.5132 31.9278 23.0521 31.8492 24.8435C31.7768 26.5011 31.5021 27.4014 31.2712 28.0018C30.9652 28.7957 30.5963 29.3618 30.0027 29.9589C29.409 30.5559 28.8436 30.9238 28.05 31.2339C27.4516 31.4675 26.5516 31.7463 24.8961 31.8252C23.1033 31.9095 22.5661 31.9272 18.0264 31.937C13.4867 31.9469 12.9511 31.9285 11.1583 31.851M25.0169 8.91403C25.0175 9.31754 25.1378 9.71178 25.3626 10.0469C25.5873 10.382 25.9064 10.643 26.2795 10.7967C26.6525 10.9505 27.0628 10.9902 27.4584 10.9107C27.8541 10.8313 28.2172 10.6363 28.502 10.3505C28.7868 10.0646 28.9805 9.70077 29.0584 9.30487C29.1364 8.90897 29.0952 8.49883 28.9401 8.12634C28.785 7.75384 28.5229 7.43572 28.1869 7.2122C27.851 6.98868 27.4563 6.86981 27.0528 6.87061C26.5119 6.87169 25.9935 7.08757 25.6117 7.47076C25.2299 7.85396 25.0159 8.3731 25.0169 8.91403ZM9.27129 18.0169C9.28081 22.8382 13.1963 26.7377 18.0165 26.7285C22.8367 26.7193 26.739 22.8042 26.7298 17.9829C26.7206 13.1617 22.8041 9.26118 17.9832 9.2707C13.1623 9.28022 9.26211 13.1964 9.27129 18.0169ZM12.3334 18.0108C12.3311 16.89 12.6613 15.7938 13.2822 14.8606C13.903 13.9275 14.7866 13.1994 15.8212 12.7684C16.8559 12.3375 17.995 12.223 19.0947 12.4395C20.1944 12.656 21.2052 13.1937 21.9993 13.9846C22.7934 14.7756 23.3351 15.7842 23.5559 16.8831C23.7768 17.9819 23.6668 19.1215 23.2399 20.1578C22.8131 21.1942 22.0885 22.0806 21.1578 22.7052C20.2272 23.3297 19.1322 23.6642 18.0114 23.6664C17.2672 23.668 16.53 23.523 15.8419 23.2396C15.1537 22.9562 14.5281 22.54 14.0009 22.0148C13.4736 21.4896 13.0549 20.8657 12.7688 20.1787C12.4827 19.4917 12.3347 18.755 12.3334 18.0108Z" fill="black"/>
</svg>
