<?xml version="1.0" encoding="utf-8"?>
<svg viewBox="0 0 813 124" fill="none" xmlns="http://www.w3.org/2000/svg">
<path d="M28.9 83.3C28.9 94 30.2 100.9 38.5 100.9C46.8 100.9 48.1 94 48.1 83.3V70.3H75.5V75.9C75.5 104.1 66.5 123.8 39.1 123.8C10.9 123.8 0 104.8 0 70.2V53.7C0 19 10.9 0.0999756 39.1 0.0999756C66.5 0.0999756 75.5 19.8 75.5 48V53.6H48.1V40.6C48.1 29.9 46.8 23 38.5 23C30.2 23 28.9 29.9 28.9 40.6V83.3Z" fill="#E52630"/>
<path d="M160 69.3C160 104 149.1 123.7 120.9 123.7C92.6998 123.7 81.7998 104 81.7998 69.3V54.4C81.7998 19.7 92.6998 0 120.9 0C149.1 0 160 19.7 160 54.4V69.3ZM111 82.9C111 93.6 112.7 100.9 121 100.9C129.2 100.9 131 93.6 131 82.9V40.8C131 30.1 129.3 22.8 121 22.8C112.8 22.8 111 30.1 111 40.8V82.9Z" fill="#E52630"/>
<path d="M217.7 62.8H218.5L230 1.5H265.4V122.2H239.3V53.4H238.5L225.3 122.2H207.7L194.1 53.4H193.3V122.2H168.6V1.5H204.8L217.7 62.8Z" fill="#E52630"/>
<path d="M304.3 1.5V122.2H276.1V1.5H304.3Z" fill="#E52630"/>
<path d="M342.1 83.3C342.1 94 343.4 100.9 351.7 100.9C359.9 100.9 361.3 94 361.3 83.3V70.3H388.7V75.9C388.7 104.1 379.7 123.8 352.3 123.8C324.1 123.8 313.2 104.8 313.2 70.2V53.7C313.2 19 324.1 0.0999756 352.3 0.0999756C379.7 0.0999756 388.7 19.8 388.7 48V53.6H361.3V40.6C361.3 29.9 360 23 351.7 23C343.5 23 342.1 29.9 342.1 40.6V83.3Z" fill="#E52630"/>
<path d="M472.2 122.2C470.7 117.6 470.3 110.5 469.5 96C468.9 84.5 466.1 78.6 457.2 78.6H453.6V122.3H425.8V1.5H460.5C487.5 1.5 499.6 15.7 499.6 37.1C499.6 56.1 491 65.5 478.7 67.6C491.3 70.5 495.6 79.5 496.5 94.6C497.5 110.5 497.3 116.6 499.9 122.2H472.2ZM456.3 56.3C467.6 56.3 472 52.7 472 40.4C472 29.5 467.6 24.1 456.3 24.1H453.6V56.3H456.3Z" fill="#E52630"/>
<path d="M569 122.2H507.9V1.5H569V24.7H535.5V49.4H560.4V72.4H535.5V99H569V122.2Z" fill="#E52630"/>
<path d="M605.6 1.5V99H638.2V122.2H577.5V1.5H605.6Z" fill="#E52630"/>
<path d="M673.5 1.5V122.2H645.4V1.5H673.5Z" fill="#E52630"/>
<path d="M745.2 122.2H684.1V1.5H745.2V24.7H711.7V49.4H736.6V72.4H711.7V99H745.2V122.2Z" fill="#E52630"/>
<path d="M753.7 122.2V1.5H812.5V24.7H781.9V52.7H804.3V75.5H781.9V122.2H753.7Z" fill="#E52630"/>
</svg>
