<svg version="1.1" id="Content" xmlns="http://www.w3.org/2000/svg" x="0" y="0" viewBox="0 0 48 48" xml:space="preserve"><style></style><path d="M39.614 34.777c-3.589-3.607-6.461-6.451-9.849-6.269-1.9.103-3.622 1.137-5.264 3.161-.399.094-2.143-.148-5.083-3.088-2.941-2.941-3.188-4.682-3.088-5.083 2.023-1.641 3.058-3.363 3.16-5.263.186-3.429-2.663-6.262-6.27-9.85l-.8-.799a2 2 0 0 0-2.116-.458c-3.648 1.368-6.128 4.289-6.979 8.224-1.404 6.484 1.764 14.553 8.268 21.057 5.483 5.484 12.079 8.596 17.899 8.596 1.084 0 2.141-.108 3.158-.328 3.935-.853 6.855-3.331 8.224-6.98a2 2 0 0 0-.459-2.116l-.801-.804zm-7.812 5.99C26.717 41.87 19.89 39.049 14.42 33.58c-5.469-5.469-8.289-12.292-7.187-17.382.338-1.562 1.2-3.559 3.349-4.797 2.599 2.585 5.002 5.015 4.915 6.618-.038.71-.624 1.523-1.74 2.417-.854.683-1.362 1.729-1.43 2.943-.09 1.628.576 4.343 4.264 8.03 3.688 3.688 6.41 4.354 8.031 4.264 1.215-.067 2.26-.575 2.942-1.429.894-1.117 1.707-1.703 2.417-1.742 1.64-.077 4.034 2.318 6.617 4.915-1.237 2.149-3.234 3.011-4.796 3.35zM25 17a2 2 0 0 1 0-4c5.141 0 10 4.86 10 10a2 2 0 0 1-4 0c0-2.916-3.084-6-6-6zm18 6a2 2 0 0 1-4 0c0-6.935-7.065-14-14-14a2 2 0 0 1 0-4c9.084 0 18 8.916 18 18z"/></svg>