<svg width="24" height="24" viewBox="0 0 24 24" fill="none" xmlns="http://www.w3.org/2000/svg">
<g clip-path="url(#clip0_2432_14605)">
<path d="M12 0.5C5.6585 0.5 0.5 5.659 0.5 12C0.5 18.341 5.6585 23.5 12 23.5C18.3415 23.5 23.5 18.341 23.5 12C23.5 5.659 18.3415 0.5 12 0.5ZM10.5 6C10.5 5.1715 11.1715 4.5 12 4.5C12.8285 4.5 13.5 5.1715 13.5 6V13C13.5 13.8285 12.8285 14.5 12 14.5C11.1715 14.5 10.5 13.8285 10.5 13V6ZM12 19.5C10.897 19.5 10 18.603 10 17.5C10 16.397 10.897 15.5 12 15.5C13.103 15.5 14 16.397 14 17.5C14 18.603 13.103 19.5 12 19.5Z" fill="#E52630"/>
</g>
<defs>
<clipPath id="clip0_2432_14605">
<rect width="24" height="24" fill="white"/>
</clipPath>
</defs>
</svg>
