<svg width="24" height="24" viewBox="0 0 24 24" fill="none" xmlns="http://www.w3.org/2000/svg">
<path d="M22.7073 21.2927L16.0635 14.6493C17.274 13.132 18 11.2122 18 9.125C18 4.23125 14.0188 0.25 9.125 0.25C4.23125 0.25 0.25 4.23125 0.25 9.125C0.25 14.0188 4.23125 18 9.125 18C11.2122 18 13.132 17.274 14.6493 16.0635L21.293 22.7073C21.4882 22.9023 21.744 23 22 23C22.256 23 22.5118 22.9023 22.7073 22.7073C23.0977 22.3165 23.0977 21.6835 22.7073 21.2927ZM9.125 16C5.334 16 2.25 12.916 2.25 9.125C2.25 5.334 5.334 2.25 9.125 2.25C12.916 2.25 16 5.334 16 9.125C16 12.916 12.916 16 9.125 16ZM13.6105 8.994C13.573 8.998 13.5357 9 13.4987 9C12.996 9 12.563 8.62175 12.506 8.11025C12.3812 6.98775 11.0117 5.61825 9.8895 5.49375C9.34075 5.43275 8.94525 4.93825 9.006 4.3895C9.067 3.8405 9.5595 3.445 10.1103 3.506C12.175 3.73525 14.2642 5.82475 14.4937 7.8895C14.5547 8.4385 14.1593 8.93275 13.6105 8.994Z" fill="#222222"/>
</svg>
