<svg width="25" height="24" viewBox="0 0 25 24" fill="none" xmlns="http://www.w3.org/2000/svg">
<path d="M22.9707 3.5H2.9707C2.4182 3.5 1.9707 3.9475 1.9707 4.5V19.5C1.9707 20.052 2.4187 20.5 2.9707 20.5H22.9707C23.5227 20.5 23.9707 20.052 23.9707 19.5V4.5C23.9707 3.9475 23.5227 3.5 22.9707 3.5ZM20.9202 5.5L12.9707 12.6545L5.0212 5.5H20.9202ZM3.9707 18.5V7.2455L12.3017 14.7435C12.4917 14.9145 12.7312 15 12.9707 15C13.2102 15 13.4497 14.9145 13.6397 14.7435L21.9707 7.2455V18.5H3.9707Z" fill="#222222"/>
</svg>
