<svg xmlns="http://www.w3.org/2000/svg" width="18" height="18" viewBox="0 0 18 18" fill="none">
  <g clip-path="url(#clip0_4311_2166)">
    <path d="M16.776 13.413C16.3074 12.9444 14.8304 11.8539 13.3639 11.0094C13.348 11.0333 13.3322 11.0571 13.3162 11.0836C14.9707 8.41798 14.6451 4.86827 12.3289 2.5521C9.62889 -0.145255 5.2533 -0.145255 2.5533 2.5521C-0.146696 5.25474 -0.144049 9.62768 2.5533 12.3277C4.8483 14.6201 8.35036 14.9668 11.008 13.3627C11.773 14.6915 12.8874 16.2507 13.4142 16.7774C14.3407 17.7039 15.8495 17.7012 16.776 16.7748C17.7024 15.8456 17.7024 14.3421 16.776 13.413ZM10.5077 10.5065C8.81363 12.198 6.07127 12.198 4.37715 10.5039C2.68568 8.81239 2.68304 6.07004 4.37715 4.37592C6.06862 2.68445 8.81363 2.68445 10.5051 4.37592C12.1992 6.07004 12.1992 8.81504 10.5077 10.5065Z" fill="black"/>
  </g>
  <defs>
    <clipPath id="clip0_4311_2166">
      <rect width="18" height="18" fill="white"/>
    </clipPath>
  </defs>
</svg>
