<svg fill="#FFFFFF" xmlns="http://www.w3.org/2000/svg" viewBox="0 0 48 48"><path d="M45.414 17.586L42 14.172V7a2 2 0 00-4 0v3.172l-2.586-2.586A2 2 0 0034 7H14a2 2 0 00-1.414.586l-10 10a2 2 0 000 2.828L6 23.828V41a2 2 0 002 2h8a2 2 0 002-2V31c0-.163.068-4 6-4 5.599 0 5.98 3.355 6 4v10a2 2 0 002 2h8a2 2 0 002-2V23.828l3.414-3.414a2 2 0 000-2.828zM14.829 11h18.343l8 8L40 20.171l-6.586-6.585A2 2 0 0032 13H16a2 2 0 00-1.414.586L8 20.171 6.829 19l8-8zM34 39v-8c0-.08-.114-8-10-8s-10 7.92-10 8v8h-4V23.828L16.829 17h14.343L38 23.828V39h-4z"/></svg>
