<svg fill="#FFFFFF" xmlns="http://www.w3.org/2000/svg" viewBox="0 0 48 48"><path d="M41.938 12.489c-.024-.909-.047-1.748-.047-2.495a2.001 2.001 0 00-2.331-1.973c-5.716.961-9.995-.112-14.305-3.586-.034-.027-.072-.045-.107-.07-.072-.05-.142-.102-.219-.142-.053-.028-.109-.045-.164-.068-.065-.027-.128-.058-.195-.077-.062-.019-.126-.027-.189-.039s-.125-.029-.19-.035c-.061-.006-.123-.002-.184-.002-.067 0-.134-.004-.202.002-.058.006-.114.021-.171.031-.069.013-.139.022-.207.042-.062.018-.12.047-.18.071-.06.024-.121.044-.178.074-.074.039-.142.089-.211.138-.037.026-.077.045-.113.074C18.435 7.907 14.156 8.98 8.44 8.02a2.001 2.001 0 00-2.331 1.973c0 .747-.023 1.586-.047 2.495-.141 5.209-.354 13.08 3.288 19.497 3.546 6.252 10.977 11.552 14.245 11.974a2.001 2.001 0 00.812-.001c3.269-.424 10.697-5.724 14.243-11.973 3.642-6.417 3.429-14.288 3.288-19.496zm-6.766 17.522c-3.311 5.835-9.874 9.783-11.148 9.983-1.349-.217-7.891-4.159-11.195-9.983-3.091-5.448-2.904-12.364-2.768-17.413l.009-.335c5.278.463 9.693-.752 13.931-3.78 4.238 3.027 8.652 4.239 13.93 3.78l.009.335c.136 5.048.323 11.964-2.768 17.413z"/><path d="M28 14.994c-1.697 0-3.036.836-4 1.754-.965-.918-2.304-1.754-4-1.754-3.645 0-6 2.355-6 6.001 0 4.809 4.11 7.928 6.829 9.991.71.539 1.38 1.048 1.758 1.425.39.391.902.586 1.414.586s1.024-.195 1.414-.586c.377-.378 1.048-.886 1.758-1.425 2.719-2.063 6.829-5.182 6.829-9.991-.001-3.645-2.357-6.001-6.002-6.001zM24.754 27.8c-.264.201-.513.391-.754.578a86.16 86.16 0 00-.754-.578C20.909 26.026 18 23.818 18 20.996c0-1.758.961-2 2-2 .896 0 1.905 1.324 2.23 1.931l.007.011c.045.084.101.161.157.238.022.03.039.064.062.092.036.043.08.079.119.12.052.054.102.111.159.158.024.019.052.033.077.052.082.06.164.119.253.166l.012.008c.037.019.076.028.113.045.079.035.157.07.239.095.053.016.107.023.161.034.074.016.146.033.222.04.054.005.108.002.162.003.076.001.151.004.227-.004.054-.005.106-.019.159-.029.074-.013.147-.025.22-.047.064-.02.125-.049.187-.074.052-.022.105-.036.156-.062l.017-.011c.072-.038.138-.087.205-.135.041-.028.086-.052.123-.083.048-.04.089-.089.134-.133.048-.048.101-.093.144-.145.027-.033.048-.073.074-.109.051-.072.104-.143.145-.221l.01-.016c.267-.513 1.29-1.923 2.225-1.923 1.039 0 2 .242 2 2 .001 2.821-2.908 5.029-5.245 6.803z"/></svg>
