<svg width="24" height="24" viewBox="0 0 24 24" fill="none" xmlns="http://www.w3.org/2000/svg">
<path d="M22.4856 19.8241L19.9856 5.33457C19.8971 4.82257 19.4306 4.46457 18.9136 4.50807L17.1071 4.66507C16.8286 3.61007 16.3466 2.49757 15.5106 1.77757C14.7791 1.14657 13.8611 0.889575 12.8596 1.03157C12.2566 1.11757 11.7461 1.32857 11.3066 1.62207C11.3056 1.62207 11.3051 1.62157 11.3041 1.62107C8.45206 0.708575 6.52456 3.29957 5.74006 5.13257L5.19506 5.02357C4.93206 4.97157 4.65806 5.02657 4.43556 5.17807C4.21406 5.32957 4.06206 5.56357 4.01456 5.82807L1.51456 19.8176C1.46256 20.1091 1.54256 20.4086 1.73256 20.6356C1.92256 20.8626 2.20306 20.9936 2.49906 20.9936H4.38156L5.10456 22.4396C5.11156 22.4536 5.12256 22.4631 5.13006 22.4766C5.15956 22.5291 5.19406 22.5781 5.23306 22.6251C5.25106 22.6466 5.26656 22.6696 5.28556 22.6891C5.29206 22.6956 5.29606 22.7036 5.30306 22.7101C5.35456 22.7601 5.41106 22.8021 5.47056 22.8391C5.48406 22.8476 5.49856 22.8531 5.51256 22.8611C5.57106 22.8941 5.63256 22.9201 5.69606 22.9406C5.71706 22.9471 5.73706 22.9536 5.75856 22.9591C5.83606 22.9781 5.91506 22.9916 5.99606 22.9916C5.99706 22.9916 5.99856 22.9921 5.99956 22.9921C6.00156 22.9921 6.00356 22.9916 6.00556 22.9916C6.04556 22.9916 6.08606 22.9891 6.12656 22.9836L21.6266 20.9851C21.8971 20.9506 22.1411 20.8066 22.3036 20.5871C22.4666 20.3686 22.5316 20.0931 22.4856 19.8241ZM13.1421 3.01157C13.5791 2.94857 13.9061 3.03507 14.2036 3.29107C14.5981 3.63057 14.8771 4.21057 15.0726 4.84207L11.2841 5.17107C11.5666 4.10907 12.1091 3.15907 13.1421 3.01157ZM9.76656 3.50357C9.49856 4.08007 9.31306 4.71257 9.18806 5.35357L7.79706 5.47457C8.17606 4.74507 8.85106 3.74557 9.76656 3.50357ZM3.69456 18.9941L5.80506 7.18507L6.41806 7.30757L5.28206 19.0356C5.19156 19.0091 5.09706 18.9941 5.00006 18.9941H3.69456ZM7.11606 20.8406L8.41506 7.42807L8.98056 7.37907C8.97356 7.80307 8.98556 8.20757 9.01556 8.57107C9.05906 9.09307 9.49656 9.48757 10.0111 9.48757C10.0391 9.48757 10.0666 9.48657 10.0951 9.48407C10.6456 9.43808 11.0546 8.95457 11.0086 8.40407C11.0071 8.38857 10.9726 7.89057 11.0011 7.20257L15.4476 6.81607C15.4736 7.09507 15.4861 7.33357 15.4876 7.49907C15.4916 8.05107 15.9211 8.50957 16.4936 8.49207C17.0456 8.48907 17.4911 8.03857 17.4876 7.48607C17.4871 7.38257 17.4816 7.07307 17.4441 6.64257L18.1711 6.57957L20.3371 19.1346L7.11606 20.8406Z" fill="#222222"/>
</svg>
