<svg width="10" height="10" viewBox="0 0 10 10" fill="#969598" xmlns="http://www.w3.org/2000/svg">
<path d="M5.70694 4.99994L9.85344 0.853438C10.0487 0.658188 10.0487 0.341688 9.85344 0.146437C9.65819 -0.0488125 9.34169 -0.0488125 9.14644 0.146437L4.99994 4.29294L0.853438 0.146437C0.658188 -0.0488125 0.341688 -0.0488125 0.146437 0.146437C-0.0488125 0.341688 -0.0488125 0.658188 0.146437 0.853438L4.29294 4.99994L0.146437 9.14644C-0.0488125 9.34169 -0.0488125 9.65819 0.146437 9.85344C0.244188 9.95119 0.371938 9.99994 0.499938 9.99994C0.627937 9.99994 0.755688 9.95119 0.853438 9.85344L4.99994 5.70694L9.14644 9.85344C9.24419 9.95119 9.37194 9.99994 9.49994 9.99994C9.62794 9.99994 9.75569 9.95119 9.85344 9.85344C10.0487 9.65819 10.0487 9.34169 9.85344 9.14644L5.70694 4.99994Z" fill="#969598"/>
</svg>
