<?xml version="1.0" encoding="utf-8"?>
<!-- Generator: Adobe Illustrator 24.3.0, SVG Export Plug-In . SVG Version: 6.00 Build 0)  -->
<svg version="1.1" id="Content" xmlns="http://www.w3.org/2000/svg" xmlns:xlink="http://www.w3.org/1999/xlink" x="0px" y="0px"
	 viewBox="0 0 48 48" style="enable-background:new 0 0 48 48;" xml:space="preserve">
<style type="text/css">
	.st0{fill:#FFFFFF;}
</style>
<path d="M46.808,11.838c0.07-0.15,0.119-0.312,0.15-0.481c0.007-0.04,0.017-0.079,0.021-0.119c0.004-0.029,0.013-0.056,0.015-0.085
	c0.012-0.159,0-0.314-0.023-0.466c-0.005-0.031-0.014-0.059-0.021-0.09c-0.038-0.184-0.097-0.36-0.183-0.523
	c-0.005-0.01-0.005-0.021-0.011-0.031c-0.002-0.003-0.005-0.006-0.007-0.009c-0.094-0.169-0.215-0.319-0.353-0.454
	c-0.026-0.026-0.051-0.051-0.078-0.075c-0.139-0.123-0.292-0.227-0.462-0.308c-0.024-0.011-0.049-0.019-0.073-0.029
	c-0.159-0.068-0.328-0.116-0.506-0.141c-0.025-0.004-0.048-0.011-0.073-0.013c-0.018-0.002-0.034-0.008-0.052-0.009l-39-3
	C5.353,5.941,4.571,6.38,4.208,7.111c-0.362,0.73-0.244,1.608,0.297,2.217l6.2,6.975l-8.124,1.741
	c-0.819,0.176-1.443,0.844-1.562,1.674c-0.118,0.83,0.294,1.645,1.032,2.042l12.152,6.544l1.828,10.053
	c0.133,0.732,0.661,1.329,1.371,1.551C17.6,39.97,17.801,40,18,40c0.522,0,1.033-0.205,1.414-0.586l27-27
	c0.021-0.021,0.031-0.05,0.052-0.072c0.122-0.132,0.232-0.276,0.316-0.439C46.792,11.882,46.798,11.86,46.808,11.838z
	 M10.786,10.374l20.302,1.562L15.201,15.34L10.786,10.374z M19.285,33.887l-1.317-7.245c-0.108-0.598-0.484-1.115-1.02-1.403
	l-8.213-4.423l30.062-6.442L19.285,33.887z M6.002,36c-0.734,0-1.44-0.405-1.791-1.106c-0.494-0.988-0.094-2.189,0.895-2.684l4-2
	c0.99-0.496,2.19-0.093,2.684,0.895c0.494,0.988,0.094,2.189-0.895,2.684l-4,2C6.607,35.933,6.302,36,6.002,36z M13.414,36.586
	c0.781,0.781,0.781,2.047,0,2.828l-4,4C9.023,43.805,8.512,44,8,44s-1.023-0.195-1.414-0.586c-0.781-0.781-0.781-2.047,0-2.828l4-4
	C11.367,35.805,12.633,35.805,13.414,36.586z"/>
</svg>
