<?xml version="1.0" encoding="utf-8"?>
<!-- Generator: Adobe Illustrator 24.3.0, SVG Export Plug-In . SVG Version: 6.00 Build 0)  -->
<svg version="1.1" id="Content" xmlns="http://www.w3.org/2000/svg" xmlns:xlink="http://www.w3.org/1999/xlink" x="0px" y="0px"
	 viewBox="0 0 48 48" style="enable-background:new 0 0 48 48;" xml:space="preserve">
<style type="text/css">
	.st0{fill:#FFFFFF;}
</style>
<path d="M17,21c0,1.654-1.346,3-3,3s-3-1.346-3-3s1.346-3,3-3S17,19.346,17,21z M24,18c-1.654,0-3,1.346-3,3s1.346,3,3,3
	s3-1.346,3-3S25.654,18,24,18z M34,18c-1.654,0-3,1.346-3,3s1.346,3,3,3s3-1.346,3-3S35.654,18,34,18z M46,10v22
	c0,0.215-0.034,0.429-0.103,0.632l-4,12c-0.256,0.768-0.949,1.305-1.756,1.363C40.094,45.999,40.047,46,39.999,46
	c-0.753,0-1.447-0.425-1.788-1.105L34.764,38H8c-3.364,0-6-2.636-6-6V10c0-3.364,2.636-6,6-6h32C43.364,4,46,6.636,46,10z M42,10
	c0-1.159-0.841-2-2-2H8c-1.159,0-2,0.841-2,2v22c0,1.159,0.841,2,2,2h28c0.758,0,1.45,0.428,1.789,1.105l1.841,3.682L42,31.675V10z"
	/>
</svg>
