<svg width="22" height="22" viewBox="0 0 22 22" fill="none" xmlns="http://www.w3.org/2000/svg">
<path d="M21 0H1C0.448 0 0 0.448 0 1V6C0 6.552 0.448 7 1 7H3V18V18.5V21C3 21.552 3.448 22 4 22H18C18.552 22 19 21.552 19 21V18.5V18V7H21C21.552 7 22 6.552 22 6V1C22 0.448 21.552 0 21 0ZM5 20V19.5H17V20H5ZM17 17.5H5V5.0625H17V17.5ZM20 5H19V4.0625C19 3.5105 18.552 3.0625 18 3.0625H4C3.448 3.0625 3 3.5105 3 4.0625V5H2V2H20V5ZM7.293 11.2695C6.9025 10.879 6.9025 10.246 7.293 9.8555L10.2925 6.856C10.339 6.809 10.3905 6.7675 10.446 6.7305C10.4695 6.7145 10.4955 6.704 10.52 6.69C10.5525 6.672 10.5835 6.6525 10.618 6.6385C10.6505 6.625 10.6845 6.6175 10.718 6.6075C10.747 6.599 10.7745 6.588 10.8045 6.582C10.934 6.556 11.067 6.556 11.196 6.582C11.226 6.588 11.2535 6.599 11.2825 6.6075C11.316 6.6175 11.35 6.625 11.3825 6.6385C11.417 6.6525 11.448 6.672 11.4805 6.69C11.5055 6.7035 11.531 6.7145 11.5545 6.7305C11.6095 6.7675 11.661 6.809 11.708 6.856L14.7075 9.8555C15.098 10.246 15.098 10.879 14.7075 11.2695C14.512 11.465 14.2565 11.5625 14.0005 11.5625C13.7445 11.5625 13.489 11.465 13.2935 11.2695L12 9.9765V14.5C12 15.052 11.552 15.5 11 15.5C10.448 15.5 10 15.052 10 14.5V9.9765L8.707 11.2695C8.3165 11.66 7.6835 11.66 7.293 11.2695Z" fill="#222222"/>
</svg>
