<svg width="22" height="23" viewBox="0 0 22 23" fill="none" xmlns="http://www.w3.org/2000/svg">
<path d="M21.4846 19.824L18.9846 5.33454C18.8961 4.82254 18.4296 4.46454 17.9126 4.50804L16.1061 4.66504C15.8276 3.61004 15.3456 2.49754 14.5096 1.77754C13.7781 1.14654 12.8601 0.889544 11.8586 1.03154C11.2556 1.11754 10.7451 1.32854 10.3056 1.62204C10.3046 1.62204 10.3041 1.62154 10.3031 1.62104C7.45108 0.708544 5.52358 3.29954 4.73908 5.13254L4.19408 5.02354C3.93108 4.97154 3.65708 5.02654 3.43458 5.17804C3.21308 5.32954 3.06108 5.56354 3.01358 5.82804L0.513583 19.8175C0.461583 20.109 0.541583 20.4085 0.731583 20.6355C0.921583 20.8625 1.20208 20.9935 1.49808 20.9935H3.38058L4.10358 22.4395C4.11058 22.4535 4.12158 22.463 4.12908 22.4765C4.15858 22.529 4.19308 22.578 4.23208 22.625C4.25008 22.6465 4.26558 22.6695 4.28458 22.689C4.29108 22.6955 4.29508 22.7035 4.30208 22.71C4.35358 22.76 4.41008 22.802 4.46958 22.839C4.48308 22.8475 4.49758 22.853 4.51158 22.861C4.57008 22.894 4.63158 22.92 4.69508 22.9405C4.71608 22.947 4.73608 22.9535 4.75758 22.959C4.83508 22.978 4.91408 22.9915 4.99508 22.9915C4.99608 22.9915 4.99758 22.992 4.99858 22.992C5.00058 22.992 5.00258 22.9915 5.00458 22.9915C5.04458 22.9915 5.08508 22.989 5.12558 22.9835L20.6256 20.985C20.8961 20.9505 21.1401 20.8065 21.3026 20.587C21.4656 20.3685 21.5306 20.093 21.4846 19.824ZM12.1411 3.01154C12.5781 2.94854 12.9051 3.03504 13.2026 3.29104C13.5971 3.63054 13.8761 4.21054 14.0716 4.84204L10.2831 5.17104C10.5656 4.10904 11.1081 3.15904 12.1411 3.01154ZM8.76558 3.50354C8.49758 4.08004 8.31208 4.71254 8.18708 5.35354L6.79608 5.47454C7.17508 4.74504 7.85008 3.74554 8.76558 3.50354ZM2.69358 18.994L4.80408 7.18504L5.41708 7.30754L4.28108 19.0355C4.19058 19.009 4.09608 18.994 3.99908 18.994H2.69358ZM6.11508 20.8405L7.41408 7.42804L7.97958 7.37904C7.97258 7.80304 7.98458 8.20754 8.01458 8.57104C8.05808 9.09304 8.49558 9.48754 9.01008 9.48754C9.03808 9.48754 9.06558 9.48654 9.09408 9.48404C9.64458 9.43804 10.0536 8.95454 10.0076 8.40404C10.0061 8.38854 9.97158 7.89054 10.0001 7.20254L14.4466 6.81604C14.4726 7.09504 14.4851 7.33354 14.4866 7.49904C14.4906 8.05104 14.9201 8.50954 15.4926 8.49204C16.0446 8.48904 16.4901 8.03854 16.4866 7.48604C16.4861 7.38254 16.4806 7.07304 16.4431 6.64254L17.1701 6.57954L19.3361 19.1345L6.11508 20.8405Z" fill="#222222"/>
</svg>
