<svg width="500" height="500" viewBox="0 0 500 500" fill="none" xmlns="http://www.w3.org/2000/svg">
<g clip-path="url(#clip0_7656_4823)">
<path d="M486.036 406.991L115.352 499.408C105.535 501.862 95.4636 495.853 93.0093 485.951L0.507616 115.352C-1.94668 105.535 4.06212 95.4639 13.9639 93.0096L384.648 0.592577C394.465 -1.86172 404.536 4.14708 406.99 14.0489L499.407 384.733C501.946 394.55 495.853 404.536 486.036 406.991Z" fill="#E52631"/>
<path d="M107.651 246.699C109.851 255.586 112.39 260.917 119.16 259.225C125.931 257.532 125.677 251.608 123.477 242.722L120.768 231.974L143.365 226.303L144.465 230.873C150.22 254.062 146.919 272.173 124.323 277.844C101.134 283.598 88.1855 270.227 81.0765 241.622L77.6913 228.081C70.5823 199.475 75.6601 181.618 98.849 175.863C121.446 170.193 132.955 184.665 138.71 207.854L139.81 212.424L117.214 218.094L114.506 207.346C112.305 198.46 109.766 193.128 102.996 194.821C96.2255 196.513 96.4794 202.437 98.6798 211.324L107.651 246.699Z" fill="white"/>
<path d="M211.916 208.446C219.025 237.052 214.116 255.586 190.843 261.341C167.654 267.096 154.536 253.131 147.427 224.526L144.38 212.17C137.271 183.565 142.18 165.031 165.454 159.276C188.642 153.521 201.76 167.485 208.869 196.09L211.916 208.446ZM174.255 229.773C176.456 238.66 179.418 244.245 186.188 242.553C192.959 240.86 192.874 234.513 190.674 225.626L182.041 190.843C179.841 181.957 176.879 176.371 170.108 178.064C163.338 179.756 163.422 186.104 165.623 194.99L174.255 229.773Z" fill="white"/>
<path d="M255.84 191.774L256.432 191.605L253.301 138.71L282.498 131.432L307.295 230.958L285.799 236.29L271.666 179.587L271.073 179.756L274.289 239.167L259.733 242.807L234.343 188.897L233.751 189.066L247.884 245.769L227.488 250.846L202.691 151.32L232.566 143.873L255.84 191.774Z" fill="white"/>
<path d="M313.135 123.815L337.932 223.341L314.743 229.096L289.946 129.57L313.135 123.815Z" fill="white"/>
<path d="M359.428 183.903C361.628 192.789 364.167 198.121 370.938 196.429C377.708 194.736 377.454 188.812 375.254 179.926L372.546 169.177L395.142 163.507L396.243 168.077C401.997 191.266 398.697 209.377 376.1 215.047C352.911 220.802 339.963 207.431 332.854 178.825L329.469 165.284C322.36 136.679 327.437 118.822 350.626 113.067C373.223 107.397 384.733 121.869 390.488 145.058L391.588 149.628L368.991 155.298L366.283 144.55C364.083 135.664 361.544 130.332 354.773 132.024C348.003 133.717 348.257 139.641 350.457 148.527L359.428 183.903Z" fill="white"/>
<path d="M158.598 383.209C156.398 379.739 154.621 373.985 150.982 362.136C148.104 352.742 144.55 348.511 137.271 350.288L134.309 351.049L143.28 387.102L120.345 392.773L95.5483 293.247L124.154 286.138C146.412 280.552 159.275 289.777 163.676 307.465C167.569 323.121 162.407 332.6 152.759 336.831C163.761 336.578 169.093 343.179 172.986 355.45C177.048 368.399 178.148 373.477 181.533 377.454L158.598 383.209ZM131.94 332.177C141.249 329.892 144.127 325.914 141.588 315.843C139.303 306.872 134.648 303.318 125.254 305.687L123.053 306.28L129.655 332.854L131.94 332.177Z" fill="white"/>
<path d="M236.882 363.744L186.527 376.27L161.646 276.828L212.001 264.303L216.74 283.429L189.066 290.284L194.144 310.681L214.709 305.603L219.448 324.56L198.883 329.638L204.384 351.557L232.059 344.702L236.882 363.744Z" fill="white"/>
<path d="M240.691 257.109L260.748 337.509L287.576 330.823L292.315 349.949L242.214 362.475L217.417 262.949L240.691 257.109Z" fill="white"/>
<path d="M295.108 243.483L319.905 343.009L296.716 348.764L271.919 249.238L295.108 243.483Z" fill="white"/>
<path d="M377.454 328.707L327.099 341.232L302.302 241.706L352.657 229.181L357.397 248.308L329.722 255.163L334.8 275.559L355.365 270.481L360.105 289.438L339.539 294.516L345.04 316.435L372.715 309.58L377.454 328.707Z" fill="white"/>
<path d="M382.786 327.353L357.989 227.827L406.483 215.724L411.222 234.851L385.917 241.114L391.672 264.133L410.122 259.563L414.777 278.351L396.327 282.921L405.975 321.428L382.786 327.353Z" fill="white"/>
</g>
<defs>
<clipPath id="clip0_7656_4823">
<rect width="500" height="500" fill="white"/>
</clipPath>
</defs>
</svg>
