<svg width="500" height="472" viewBox="0 0 500 472" fill="none" xmlns="http://www.w3.org/2000/svg">
<path d="M500 270.344C500 381.559 409.852 471.768 298.576 471.768C187.3 471.768 97.1528 381.62 97.1528 270.344C97.1528 159.068 187.362 68.9819 298.576 68.9819C409.791 68.9819 500 159.129 500 270.344Z" fill="#E52631"/>
<path d="M44.0568 226.801C46.4452 235.682 55.5702 240.948 64.4502 238.56L226.801 195.078C235.682 192.69 240.948 183.565 238.56 174.685L195.078 12.3336C192.69 3.45362 183.565 -1.81315 174.685 0.57527L12.3336 44.0568C3.45362 46.4452 -1.81315 55.5702 0.57527 64.4502L44.0568 226.801Z" fill="black"/>
<path d="M51.0993 119.139C52.2629 123.365 53.4877 125.937 56.7335 125.079C59.9793 124.222 59.7956 121.344 58.632 117.118L57.2847 111.974L68.1244 109.095L68.7369 111.3C71.7377 122.385 70.2679 131.142 59.4281 134.021C48.3434 137.021 41.9743 130.652 38.3611 116.996L36.6463 110.504C32.9718 96.8471 35.299 88.212 46.3837 85.2112C57.2235 82.3328 62.8577 89.1306 65.7973 100.277L66.4097 102.481L55.5699 105.36L54.2226 100.215C53.059 95.9897 51.8342 93.4175 48.5884 94.2749C45.3426 95.1323 45.5263 98.0106 46.6899 102.236L51.0993 119.139Z" fill="white"/>
<path d="M100.95 99.9091C104.624 113.566 102.42 122.507 91.2737 125.508C80.189 128.509 73.7586 121.834 70.0841 108.177L68.4918 102.298C64.8173 88.6407 67.022 79.6994 78.168 76.6986C89.2527 73.6978 95.6831 80.3731 99.3576 94.03L100.95 99.9091ZM83.0061 110.443C84.1697 114.668 85.5782 117.363 88.824 116.506C92.0698 115.648 92.0086 112.586 90.845 108.36L86.3744 91.7028C85.2108 87.4771 83.8022 84.7825 80.5564 85.6399C77.3106 86.4972 77.3719 89.5593 78.5355 93.785L83.0061 110.443Z" fill="white"/>
<path d="M121.895 91.5191L122.201 91.4579L120.241 66.0426L134.204 62.3069L146.943 109.953L136.654 112.709L129.366 85.5787L129.06 85.6399L131.142 114.178L124.161 116.016L111.545 90.2943L111.239 90.3555L118.526 117.486L108.789 120.119L96.0508 72.473L110.32 68.6148L121.895 91.5191Z" fill="white"/>
<path d="M148.841 58.3872L161.579 106.033L150.494 109.034L137.756 61.3268L148.841 58.3872Z" fill="white"/>
<path d="M171.684 86.8646C172.847 91.0902 174.072 93.6624 177.318 92.805C180.564 91.9476 180.38 89.0693 179.216 84.8436L177.869 79.6993L188.709 76.8209L189.321 79.0256C192.322 90.1104 190.852 98.8679 180.013 101.746C168.928 104.747 162.559 98.378 158.946 84.7211L157.231 78.2295C153.556 64.5726 155.883 55.9376 166.968 52.9367C177.808 50.0584 183.442 56.8562 186.382 68.0022L186.994 70.2069L176.154 73.0852L174.807 67.9409C173.644 63.7153 172.419 61.1431 169.173 62.0005C165.927 62.8579 166.111 65.7362 167.274 69.9619L171.684 86.8646Z" fill="white"/>
<path d="M76.7594 184.361C75.6571 182.708 74.7385 179.952 72.9012 174.317C71.4314 169.847 69.7166 167.826 66.2259 168.744L64.8173 169.112L69.4104 186.321L58.4482 189.26L45.71 141.614L59.3668 137.94C70.0229 135.062 76.2695 139.41 78.5354 147.861C80.5564 155.333 78.1067 159.987 73.5136 162.069C78.7804 161.885 81.4138 164.947 83.3735 170.827C85.4557 177.012 86.0069 179.462 87.6604 181.36L76.7594 184.361ZM63.5313 160.048C68.0019 158.823 69.3492 156.925 68.0631 152.087C66.8995 147.8 64.5724 146.146 60.163 147.31L59.1219 147.616L62.5514 160.293L63.5313 160.048Z" fill="white"/>
<path d="M114.239 174.318L90.1103 180.809L77.3721 133.163L101.501 126.672L103.951 135.797L90.7227 139.349L93.3561 149.086L103.155 146.453L105.604 155.516L95.8058 158.15L98.6229 168.683L111.851 165.131L114.239 174.318Z" fill="white"/>
<path d="M115.158 123.058L125.447 161.518L138.307 158.089L140.757 167.214L116.811 173.644L104.073 125.998L115.158 123.058Z" fill="white"/>
<path d="M141.185 116.077L153.924 163.723L142.839 166.724L130.101 119.078L141.185 116.077Z" fill="white"/>
<path d="M181.483 156.312L157.353 162.804L144.615 115.158L168.744 108.667L171.194 117.791L157.966 121.344L160.599 131.081L170.398 128.448L172.848 137.511L163.049 140.145L165.866 150.678L179.094 147.126L181.483 156.312Z" fill="white"/>
<path d="M184.116 155.578L171.378 107.932L194.588 101.685L197.038 110.81L184.912 114.056L187.852 125.079L196.671 122.691L199.059 131.693L190.24 134.082L195.201 152.516L184.116 155.578Z" fill="white"/>
<path d="M251.543 218.044C250.441 214.737 250.196 209.654 249.645 199.243C249.216 190.975 247.195 186.749 240.826 186.749H238.193V218.044H218.289V131.51H243.153C262.505 131.51 271.202 141.676 271.202 157.047C271.202 170.643 265.016 177.379 256.259 178.91C265.323 180.993 268.323 187.423 269.058 198.263C269.732 209.654 269.609 214.063 271.508 218.044H251.543ZM240.152 170.765C248.236 170.765 251.421 168.132 251.421 159.374C251.421 151.535 248.236 147.677 240.152 147.677H238.193V170.765H240.152Z" fill="white"/>
<path d="M319.644 218.044H275.856V131.51H319.644V148.106H295.637V165.866H313.458V182.34H295.637V201.447H319.644V218.044Z" fill="white"/>
<path d="M379.415 181.666C379.415 204.754 370.597 218.044 351.244 218.044H324.849V131.51H351.244C370.597 131.51 379.415 144.86 379.415 167.887V181.666ZM358.838 160.905C358.838 152.393 355.96 147.432 348.795 147.432H345.059V202.121H348.795C355.96 202.121 358.838 197.16 358.838 188.648V160.905Z" fill="white"/>
<path d="M225.515 227.108H244.194V313.642H228.945L209.041 268.997H208.49V313.642H189.812V227.108H208.184L224.964 266.915H225.515V227.108Z" fill="white"/>
<path d="M325.339 284.369V287.798C325.339 294.228 328.095 298.515 333.423 298.515C338.077 298.515 340.588 295.882 340.588 291.105C340.588 286.145 337.404 284.246 332.198 281.368L324.91 277.387C315.724 272.304 307.763 266.119 307.763 251.298C307.763 235.926 317.806 226.005 332.627 226.005C348.427 226.005 357.491 235.069 357.491 252.768V256.197H339.792V252.645C339.792 245.664 337.587 242.234 332.627 242.234C328.34 242.234 326.196 245.235 326.196 249.951C326.196 254.36 328.646 257.116 332.81 259.321L340.894 263.73C352.285 269.916 359.144 275.978 359.144 289.39C359.144 306.171 348.856 314.806 333.484 314.806C318.112 314.806 307.64 306.293 307.64 287.737V284.43H325.339V284.369Z" fill="white"/>
<path d="M304.884 275.733C304.884 300.598 297.045 314.744 276.836 314.744C256.626 314.744 248.787 300.598 248.787 275.733V265.016C248.787 240.152 256.626 226.005 276.836 226.005C297.045 226.005 304.884 240.152 304.884 265.016V275.733ZM269.732 285.471C269.732 293.187 270.957 298.393 276.897 298.393C282.776 298.393 284.062 293.187 284.062 285.471V255.279C284.062 247.562 282.837 242.357 276.897 242.357C271.018 242.357 269.732 247.562 269.732 255.279V285.471Z" fill="white"/>
<path d="M407.342 313.642H363.554V227.108H407.342V243.704H383.335V261.464H401.156V277.938H383.335V297.046H407.342V313.642Z" fill="white"/>
<path d="M272.427 372.862C272.427 395.95 263.608 409.24 244.255 409.24H217.86V322.706H244.255C263.608 322.706 272.427 336.056 272.427 359.083V372.862ZM251.849 352.102C251.849 343.589 248.971 338.628 241.806 338.628H238.07V393.317H241.806C248.971 393.317 251.849 388.356 251.849 379.844V352.102Z" fill="white"/>
<path d="M314.071 322.706L332.749 409.24H312.723L309.845 393.868H292.82L289.819 409.24H271.385L290.003 322.706H314.071ZM295.637 378.619H307.028L301.822 350.019H301.271L295.637 378.619Z" fill="white"/>
<path d="M361.533 322.706H381.436L361.288 378.864V409.24H341.629V378.864L321.419 322.706H342.303L352.346 354.551L361.533 322.706Z" fill="white"/>
</svg>
