<svg width="500" height="472" viewBox="0 0 500 472" fill="none" xmlns="http://www.w3.org/2000/svg">
<g clip-path="url(#clip0_7656_4867)">
<path d="M499.999 270.396C499.999 381.626 409.834 471.791 298.605 471.791C187.376 471.791 97.2104 381.626 97.2104 270.396C97.2104 159.167 187.351 68.9773 298.58 68.9773C409.809 68.9773 499.974 159.142 499.974 270.372" fill="#204794"/>
<path d="M44.0817 226.835C46.4551 235.735 55.6027 241.001 64.503 238.628L226.86 195.115C235.76 192.742 241.026 183.594 238.653 174.694L195.115 12.362C192.742 3.46164 183.594 -1.80438 174.694 0.569042L12.362 44.0817C3.46164 46.4551 -1.80438 55.6027 0.569042 64.4783L44.0817 226.835Z" fill="#E62731"/>
<path d="M51.1515 119.19C52.2887 123.417 53.5496 126.013 56.7883 125.123C60.0271 124.258 59.8293 121.39 58.7167 117.163L57.3323 112.02L68.1362 109.128L68.7296 111.328C71.6964 122.429 70.2377 131.181 59.4337 134.073C48.333 137.04 42.0039 130.711 38.3449 117.039L36.6143 110.537C32.9553 96.8649 35.2545 88.2118 46.3552 85.245C57.1592 82.3524 62.7961 89.176 65.7876 100.301L66.3809 102.502L55.5769 105.394L54.1924 100.252C53.0552 96.0243 51.7943 93.4284 48.5556 94.3184C45.3168 95.1837 45.5146 98.0516 46.6272 102.279L51.1762 119.215L51.1515 119.19Z" fill="white"/>
<path d="M83.0447 110.463C84.182 114.691 85.6407 117.385 88.8794 116.52C92.1181 115.655 92.0439 112.589 90.9067 108.362L86.4565 91.7229C85.3193 87.4952 83.8606 84.8004 80.6219 85.6657C77.3831 86.531 77.4573 89.5967 78.5946 93.8243L83.0447 110.463ZM100.969 99.9309C104.628 113.603 102.403 122.553 91.3022 125.519C80.2016 128.486 73.7983 121.86 70.1393 108.188L68.557 102.304C64.898 88.6325 67.123 79.6827 78.2237 76.716C89.3244 73.7492 95.7277 80.375 99.3867 94.0468L100.969 99.9309Z" fill="white"/>
<path d="M121.934 91.5494L122.231 91.4753L120.278 66.0599L134.271 62.302L147.028 109.943L136.743 112.688L129.475 85.5417L129.178 85.6406L131.23 114.171L124.283 116.025L111.649 90.338L111.328 90.4122L118.597 117.558L108.856 120.154L96.0986 72.5374L110.389 68.7053L121.934 91.5494Z" fill="white"/>
<path d="M148.882 58.3962L161.64 106.013L150.539 109.004L137.782 61.363L148.882 58.3962Z" fill="white"/>
<path d="M171.676 86.8771C172.814 91.1047 174.075 93.7007 177.313 92.8106C180.552 91.9453 180.354 89.0774 179.242 84.8498L177.857 79.7074L188.661 76.8148L189.255 79.0151C192.221 90.1158 190.763 98.8678 179.959 101.76C168.858 104.727 162.529 98.3981 158.87 84.7262L157.139 78.224C153.48 64.5521 155.779 55.899 166.88 52.9323C177.684 50.0397 183.321 56.8632 186.312 67.9886L186.906 70.189L176.102 73.0816L174.717 67.9392C173.58 63.7115 172.319 61.1156 169.08 62.0057C165.842 62.871 166.04 65.7388 167.152 69.9665L171.701 86.9018L171.676 86.8771Z" fill="white"/>
<path d="M63.5623 160.058C68.0125 158.871 69.3723 156.967 68.0867 152.122C66.9247 147.82 64.6254 146.163 60.1753 147.35L59.1122 147.622L62.524 160.33L63.5871 160.058H63.5623ZM76.7892 184.385C75.7014 182.729 74.7866 179.984 72.9571 174.323C71.5232 169.848 69.7431 167.821 66.2819 168.735L64.848 169.131L69.4712 186.363L58.5188 189.305L45.7617 141.688L59.4336 138.029C70.0893 135.162 76.3442 139.488 78.6187 147.968C80.6213 155.459 78.2232 160.058 73.5999 162.184C78.8907 161.986 81.5113 165.076 83.4892 170.961C85.5412 177.141 86.1098 179.564 87.7663 181.493L76.8139 184.435L76.7892 184.385Z" fill="white"/>
<path d="M114.245 174.347L90.1399 180.8L77.3828 133.183L101.488 126.731L103.935 135.878L90.7086 139.414L93.3292 149.179L103.144 146.534L105.592 155.607L95.7521 158.228L98.5705 168.735L111.797 165.2L114.245 174.347Z" fill="white"/>
<path d="M115.185 123.047L125.495 161.541L138.351 158.08L140.798 167.227L116.842 173.655L104.084 126.038L115.185 123.047Z" fill="white"/>
<path d="M141.218 116.075L154 163.692L142.874 166.683L130.117 119.066L141.218 116.075Z" fill="white"/>
<path d="M181.516 156.324L157.411 162.777L144.654 115.16L168.759 108.708L171.207 117.855L157.98 121.39L160.601 131.131L170.441 128.511L172.863 137.584L163.024 140.205L165.842 150.712L179.069 147.177L181.516 156.324Z" fill="white"/>
<path d="M184.113 155.632L171.356 108.015L194.571 101.785L197.019 110.932L184.904 114.171L187.871 125.222L196.722 122.849L199.12 131.848L190.294 134.197L195.214 152.64L184.113 155.632Z" fill="white"/>
<path d="M177.882 236.6V239.987C177.882 246.366 180.602 250.568 185.868 250.568C190.466 250.568 192.914 247.997 192.914 243.25C192.914 238.504 189.799 236.476 184.656 233.633L177.462 229.702C168.389 224.683 160.527 218.577 160.527 203.941C160.527 189.305 170.416 178.995 185.052 178.995C200.627 178.995 209.577 187.945 209.577 205.424V208.811H192.098V205.276C192.098 198.353 189.922 194.966 185.052 194.966C180.849 194.966 178.673 197.958 178.673 202.556C178.673 206.883 181.121 209.602 185.176 211.778L193.161 216.104C204.41 222.211 211.184 228.169 211.184 241.446C211.184 257.985 201.023 266.515 185.843 266.515C170.663 266.515 160.354 258.109 160.354 239.814V236.55H177.833L177.882 236.6Z" fill="white"/>
<path d="M237.392 221.297C245.649 221.297 247.973 218.033 247.973 208.836C247.973 199.639 245.674 196.104 237.392 196.104H235.364V221.321H237.392V221.297ZM235.364 265.477H215.586V180.083H239.716C258.431 180.083 267.232 190.393 267.232 208.688C267.232 226.983 258.431 237.416 239.716 237.416H235.389V265.477H235.364Z" fill="white"/>
<path d="M290.67 237.688C290.67 245.278 291.881 250.42 297.716 250.42C303.551 250.42 304.762 245.278 304.762 237.688V207.872C304.762 200.282 303.551 195.139 297.716 195.139C291.881 195.139 290.67 200.282 290.67 207.872V237.688ZM325.357 228.07C325.357 252.596 317.643 266.564 297.716 266.564C277.789 266.564 270.076 252.596 270.076 228.07V217.489C270.076 192.964 277.814 178.995 297.716 178.995C317.618 178.995 325.357 192.964 325.357 217.489V228.07Z" fill="white"/>
<path d="M351.513 218.849C359.498 218.849 362.638 216.278 362.638 207.6C362.638 199.886 359.523 196.079 351.513 196.079H349.609V218.849H351.513ZM362.762 265.477C361.674 262.213 361.402 257.219 360.858 246.91C360.462 238.776 358.41 234.573 352.18 234.573H349.609V265.477H329.954V180.083H354.479C373.59 180.083 382.12 190.121 382.12 205.301C382.12 218.725 376.013 225.351 367.335 226.859C376.285 228.887 379.252 235.265 379.944 245.97C380.612 257.219 380.488 261.546 382.392 265.477H362.737H362.762Z" fill="white"/>
<path d="M400.316 265.477V196.499H384.048V180.083H436.783V196.499H420.095V265.477H400.316Z" fill="white"/>
<path d="M183.865 315.145C191.851 315.145 194.991 312.574 194.991 303.896C194.991 296.183 191.875 292.375 183.865 292.375H181.961V315.145H183.865ZM195.114 361.773C194.026 358.51 193.754 353.516 193.211 343.206C192.815 335.072 190.763 330.869 184.533 330.869H181.961V361.773H162.307V276.38H186.832C205.943 276.38 214.472 286.417 214.472 301.597C214.472 315.022 208.366 321.648 199.688 323.156C208.638 325.183 211.605 331.562 212.297 342.267C212.964 353.516 212.841 357.842 214.744 361.773H195.089H195.114Z" fill="white"/>
<path d="M262.337 361.773H219.096V276.38H262.337V292.771H238.603V310.25H256.23V326.518H238.603V345.357H262.337V361.773Z" fill="white"/>
<path d="M287.406 276.38V345.357H310.448V361.773H267.479V276.38H287.406Z" fill="white"/>
<path d="M334.973 276.38V361.773H315.071V276.38H334.973Z" fill="white"/>
<path d="M384.197 361.773H340.957V276.38H384.197V292.771H360.463V310.25H378.091V326.518H360.463V345.357H384.197V361.773Z" fill="white"/>
<path d="M389.339 361.773V276.38H430.948V292.771H409.266V312.574H425.114V328.694H409.266V361.773H389.339Z" fill="white"/>
</g>
<defs>
<clipPath id="clip0_7656_4867">
<rect width="500" height="471.791" fill="white"/>
</clipPath>
</defs>
</svg>
