<?xml version="1.0" encoding="utf-8"?>
<!-- Generator: Adobe Illustrator 23.0.3, SVG Export Plug-In . SVG Version: 6.00 Build 0)  -->
<svg version="1.1" id="Layer_1" xmlns="http://www.w3.org/2000/svg" xmlns:xlink="http://www.w3.org/1999/xlink" x="0px" y="0px"
	 viewBox="0 0 150 150" style="enable-background:new 0 0 150 150;" xml:space="preserve">
<style type="text/css">
	.st0{fill:#FFFFFF;}
	.st1{fill:#E52630;}
</style>
<g>
	<g>
		<path class="st0" d="M75,150c-41.36,0-75-33.64-75-75S33.64,0,75,0s75,33.64,75,75S116.35,150,75,150z M75,6.51
			C37.23,6.51,6.51,37.23,6.51,75S37.23,143.49,75,143.49s68.5-30.73,68.5-68.49S112.77,6.51,75,6.51z"/>
		<path class="st1" d="M146.75,75c0,39.63-32.12,71.75-71.75,71.75S3.25,114.62,3.25,75S35.37,3.25,75,3.25S146.75,35.37,146.75,75"
			/>
	</g>
	<g>
		<path class="st0" d="M32,62.97v1.21c0,2.27,0.97,3.77,2.85,3.77c1.64,0,2.51-0.92,2.51-2.61c0-1.74-1.11-2.41-2.95-3.43l-2.56-1.4
			c-3.24-1.79-6.04-3.96-6.04-9.17c0-5.41,3.52-8.88,8.74-8.88c5.55,0,8.74,3.19,8.74,9.42v1.21h-6.23v-1.26
			c0-2.46-0.77-3.67-2.51-3.67c-1.5,0-2.27,1.06-2.27,2.7c0,1.55,0.87,2.51,2.32,3.28l2.85,1.55c4.01,2.17,6.42,4.3,6.42,9.03
			c0,5.89-3.62,8.93-9.03,8.93c-5.41,0-9.08-2.99-9.08-9.51v-1.16H32z"/>
		<path class="st0" d="M52.47,73.25h-7.05V42.83h8.6c6.66,0,9.8,3.67,9.8,10.19c0,6.52-3.14,10.24-9.8,10.24h-1.55V73.25z
			 M53.2,57.51c2.95,0,3.77-1.16,3.77-4.44c0-3.28-0.82-4.54-3.77-4.54h-0.72v8.98H53.2z"/>
		<path class="st0" d="M84.54,59.92c0,8.74-2.75,13.71-9.85,13.71c-7.1,0-9.85-4.97-9.85-13.71v-3.77c0-8.74,2.75-13.71,9.85-13.71
			c7.1,0,9.85,4.97,9.85,13.71V59.92z M72.17,63.35c0,2.7,0.43,4.54,2.51,4.54c2.08,0,2.51-1.83,2.51-4.54V52.73
			c0-2.7-0.43-4.54-2.51-4.54c-2.08,0-2.51,1.83-2.51,4.54V63.35z"/>
		<path class="st0" d="M97.86,73.25c-0.39-1.16-0.48-2.95-0.68-6.62c-0.14-2.9-0.87-4.39-3.09-4.39h-0.92v11.01h-7V42.83h8.74
			c6.81,0,9.85,3.57,9.85,8.98c0,4.78-2.17,7.15-5.26,7.68c3.19,0.72,4.25,2.99,4.49,6.81c0.24,4.01,0.19,5.55,0.87,6.95H97.86z
			 M93.86,56.64c2.85,0,3.96-0.92,3.96-4.01c0-2.75-1.11-4.1-3.96-4.1h-0.68v8.11H93.86z"/>
		<path class="st0" d="M111.24,73.25V48.67h-5.79v-5.84h18.78v5.84h-5.94v24.58H111.24z"/>
		<path class="st0" d="M38.13,107.55c-0.39-1.16-0.48-2.95-0.68-6.62c-0.14-2.9-0.87-4.39-3.09-4.39h-0.92v11.01h-7V77.13h8.74
			c6.81,0,9.85,3.57,9.85,8.98c0,4.78-2.17,7.15-5.26,7.68c3.19,0.72,4.25,2.99,4.49,6.81c0.24,4.01,0.19,5.55,0.87,6.95H38.13z
			 M34.13,90.94c2.85,0,3.96-0.92,3.96-4.01c0-2.75-1.11-4.1-3.96-4.1h-0.68v8.11H34.13z"/>
		<path class="st0" d="M62.08,107.55h-15.4V77.13h15.4v5.84h-8.45v6.23h6.28V95h-6.28v6.71h8.45V107.55z"/>
		<path class="st0" d="M71.02,77.13v24.58h8.21v5.84H63.92V77.13H71.02z"/>
		<path class="st0" d="M87.97,77.13v30.42h-7.1V77.13H87.97z"/>
		<path class="st0" d="M105.49,107.55h-15.4V77.13h15.4v5.84h-8.45v6.23h6.28V95h-6.28v6.71h8.45V107.55z"/>
		<path class="st0" d="M107.33,107.55V77.13h14.82v5.84h-7.73v7.05h5.65v5.75h-5.65v11.78H107.33z"/>
	</g>
</g>
</svg>
