<svg fill="#6F3AAB" xmlns="http://www.w3.org/2000/svg" viewBox="0 0 48 48"><path d="M15 23.936c3.309 0 6-2.685 6-5.984s-2.691-5.984-6-5.984-6 2.684-6 5.984 2.692 5.984 6 5.984zm0-7.968c1.103 0 2 .89 2 1.983s-.897 1.984-2 1.984-2-.89-2-1.984.897-1.983 2-1.983zM32 15.968c3.309 0 6-2.685 6-5.984S35.308 4 32 4s-6 2.685-6 5.984 2.691 5.984 6 5.984zM32 8c1.103 0 2 .89 2 1.984s-.897 1.984-2 1.984-2-.89-2-1.984S30.897 8 32 8z"/><path d="M43.797 17.075a1.999 1.999 0 00-2.674-.92c-1.708.833-4.476.969-7.152 1.101-4.76.234-10.155.499-12.686 4.717-2.322 3.871-10.368 3.884-14.894 2.982a1.999 1.999 0 00-2.352 1.571 1.999 1.999 0 001.571 2.352c1.14.227 2.5.407 3.956.503-.492 1.677-1.181 3.557-1.814 5.275-1.808 4.912-2.633 7.153-1.164 8.617A2.535 2.535 0 008.395 44c.153 0 .309-.012.465-.038 2.176-.354 5.206-3.707 7.044-6.629.309.77.614 1.64.826 2.245.936 2.667 1.5 4.277 3.27 4.277.343 0 1.505-.108 2.078-1.495.787-1.906.922-10.876-.665-15.122 1.338-.796 2.482-1.843 3.302-3.209.63-1.05 1.738-1.674 3.132-2.062-.384 3.035-1.426 7.304-2.3 10.878-1.81 7.405-2.19 9.199-.958 10.427a2.3 2.3 0 001.635.676c.129 0 .26-.01.391-.032 1.752-.285 4.275-3.586 7.534-9.865.756 1.252 1.669 3.237 2.186 4.359 1.448 3.147 2.047 4.449 3.666 4.449a2.11 2.11 0 001.855-1.128c1.094-2.05-1.593-15.373-3.345-20.811 1.578-.204 3.076-.541 4.367-1.171a2 2 0 00.919-2.674zM18.551 33.693c-.644-.979-1.42-1.609-2.469-1.677-.686-.036-1.957.155-2.869 1.97-.579 1.153-1.363 2.292-2.152 3.266.152-.419.304-.832.445-1.215.794-2.159 1.657-4.545 2.191-6.656a22.185 22.185 0 004.071-.657c.383.967.645 2.901.783 4.969zm18.321-2.724c-.889-1.17-1.811-1.816-2.932-1.835-.64.018-1.9.216-2.728 1.864a77.257 77.257 0 01-2.01 3.738l.23-.941c1.046-4.277 2.21-9.045 2.498-12.42.729-.05 1.479-.087 2.237-.125l.266-.014c.639 1.292 1.634 5.545 2.439 9.733z"/></svg>
