<svg fill="#6F3AAB" xmlns="http://www.w3.org/2000/svg" viewBox="0 0 48 48"><path d="M46 23c0-.311-.007-.809-.128-1.36C44.69 10.615 35.333 2 24 2 11.869 2 2 11.869 2 24c0 .264.011.526.02.788-.023.213-.013.422.03.625C2.781 36.887 12.344 46 24 46c12.131 0 22-9.869 22-22 0-.268-.011-.533-.02-.799.007-.067.02-.132.02-.201zM32.897 9.632l.117-.356c.296-.034.645-.11 1.023-.21a18.072 18.072 0 017.181 9.699c-.526.046-1.091.141-1.703.294-.463.116-.953.245-1.458.378-1.738.458-6.357 1.673-7.16.93-.429-1.286-1.326-2.105-2.262-2.654 1.809-1.383 2.662-3.103 2.274-4.746a3.175 3.175 0 00-.213-.607c1.096-.71 1.833-1.621 2.201-2.728zm-23.82 4.314c.397.428.759.844.984 1.169C8.84 16.36 7.2 18.183 6.853 19.909c-.126.036-.264.083-.398.127a17.872 17.872 0 012.622-6.09zm1.819 22.355a18.182 18.182 0 01-1.907-2.391 1.995 1.995 0 00-.116-.612c-.073-.194-.14-.376-.202-.548.426.152.87.25 1.329.25.687 0 1 0 1 2 0 .422-.05.852-.104 1.301zM41.847 26.23c-2.514.647-3.277.99-4.026 2.065-.054.077-.115.17-.234.29-1.925 1.925-.14 4.016.533 4.803.232.272.46.554.671.844C35.537 38.92 30.124 42 24 42c-2.994 0-5.814-.745-8.3-2.044a2.013 2.013 0 00-.286-.37c-.759-.759-.741-1.217-.561-2.689.069-.561.147-1.196.147-1.897 0-4.943-2.701-5.993-4.883-5.993h-.022c-.23-.048-.834-.396-1.194-.604-.695-.402-1.619-.927-2.559-.941a17.973 17.973 0 01-.284-2.327c.362-.884 1.159-1.224 2.584-1.552.811-.187 2.036-.47 2.408-1.768.078-.272.18-.859-.118-1.504.245-.426.873-1.287 2.483-2.897 1.993-1.993.294-4.386-1.716-6.517a18.16 18.16 0 012.095-1.706l.039.025c.853.545 1.587.825 2.404.825.997 0 2.114-.418 3.713-1.28.393-.212.634-.496.914-.825C21.437 7.259 22.506 6 24 6c1.955 0 3.833.323 5.596.902a8.416 8.416 0 00-.219.615c-.071.223-.159.501-.275.851-.037.112-.457 1.111-3.618 1.61-2.006.317-1.89 2.095-1.884 2.17.045.557.366 1.852 2.4 1.852.314 0 .561.025.747.059-.27.298-.774.719-1.642 1.152-.513.257-1.203.61-1.725 1.133-.234-.858-.596-1.637-1.073-1.975a2.004 2.004 0 00-2.362.034c-1.181.89-.727 2.181-.557 2.667.071.203.05.279-.099.616-.162.367-.591 1.342.052 2.33.242.368.811.984 1.936.984.916 0 1.709-.501 2.119-1.305.532.466 1.239.709 1.791.891.658.217 1.76.58 1.915 1.045 1.48 4.439 7.545 2.84 11.974 1.673.488-.129.961-.253 1.409-.365.744-.186 1.194-.217 1.451-.21.029.423.064.842.064 1.271 0 .757-.062 1.498-.153 2.23z"/><path d="M29.624 24.563c-.767-.273-2.118-.754-2.675-1.117a2.453 2.453 0 00-.62-1.222 2.441 2.441 0 00-1.797-.751C22.167 21.473 18 25.246 18 28c0 2.674 2.15 4.672 5.215 4.963.102.437.191 1.071.257 1.538.292 2.072.657 4.65 2.895 5.396.345.115.692.172 1.034.172.552 0 1.086-.149 1.562-.444 1.756-1.086 2.117-3.632 2.534-6.581.151-1.069.398-2.81.674-3.411 1.133-.712 1.166-1.774 1.146-2.101-.103-1.689-1.687-2.254-3.693-2.969zm-2.087 7.92c-.045.32-.098.693-.158 1.082C27.094 31.617 26.565 29 24 29c-.803 0-1.922-.29-1.996-.933.172-.519 1.052-1.443 1.818-2.049 1.016 1.085 2.811 1.725 4.459 2.312l.1.036c-.422 1.136-.625 2.571-.844 4.117z"/></svg>
