<svg fill="#6F3AAB" xmlns="http://www.w3.org/2000/svg" viewBox="0 0 48 48"><path d="M46 16.993c0-.395-.117-.781-.336-1.11l-6-8.993a2.003 2.003 0 00-2.704-.599c-1.795 1.093-3.336 1.126-5.12 1.166-2.11.046-4.459.104-6.948 1.982-3.46-2.202-6.518-1.547-9.031-1.004-2.166.466-3.876.835-5.956-.22a2 2 0 00-2.653.812l-5 8.993a1.998 1.998 0 00-.078 1.787c.575 1.29 3.131 6.842 5.846 10.068-.462 1.083-.42 2.375.566 3.377.53.537 1.215.837 1.941.874-.296 1.027-.11 1.998.618 2.737a2.62 2.62 0 001.877.778h.002c.698 0 1.353-.271 1.895-.601-.158.899.064 1.743.703 2.39a2.633 2.633 0 001.887.782h.002c.569 0 1.102-.181 1.57-.422.118.473.35.933.755 1.343a2.883 2.883 0 002.056.867h.002c1.344-.001 2.347-.913 2.622-1.193l.724-.736c.721.657 1.841 1.434 3.2 1.51.073.004.146.006.219.006 1.033 0 1.984-.414 2.765-1.206a4.874 4.874 0 001.027-1.504c.135.01.264.033.403.033 1.16 0 2.441-.381 3.57-1.526.808-.82 1.196-1.7 1.325-2.554.784-.125 1.745-.499 2.675-1.443 2.184-2.215 1.806-6.1 1.596-7.441C44.306 23.22 46 19.622 46 16.993zm-14.072-5.537c1.534-.034 3.362-.073 5.386-.882l4.646 6.964c-.28 1.994-1.963 4.904-3.831 6.749l-7.715-7.709a1.998 1.998 0 00-2.308-.374l-8.084 4.042c-.256.144-1.545.793-2.272-.234.377-1.058 3.738-3.191 5.197-4.118 1.354-.859 2.518-1.608 3.281-2.318l.032-.029c.051-.048.117-.098.164-.145 1.839-1.866 3.297-1.898 5.504-1.946zm5.648 19.122c-.232.236-.55.56-1.172-.021l-.003-.002-4.987-4.983a1.999 1.999 0 10-2.827 2.829l4.901 4.898c.232.325.495.865.088 1.277-.462.468-.993.37-1.354.211a5.673 5.673 0 00-.674-1.073 1.692 1.692 0 00-.134-.147l-4-3.997a1.999 1.999 0 10-2.827 2.829l3.901 3.898c.222.312.469.822.09 1.265-.263-.103-.73-.48-1.005-.82a2.235 2.235 0 00-.159-.179l-1-.999a2.004 2.004 0 00-.306-.25c-.07-.088-.126-.18-.209-.265a2.873 2.873 0 00-2.056-.869h-.003c-.124 0-.241.015-.358.03.019-.724-.212-1.397-.741-1.932-.499-.505-1.202-.746-1.889-.782-.643 0-1.241.23-1.749.52.184-.92-.032-1.781-.692-2.45a2.62 2.62 0 00-1.877-.778h-.002c-.475 0-.927.131-1.34.315a2.867 2.867 0 00-.818-1.638 2.916 2.916 0 00-2.085-.888c-.582 0-1.086.172-1.494.383-1.502-1.932-3.316-5.253-4.552-7.88l3.658-6.58c2.598.754 4.892.259 6.805-.153 1.741-.376 3.158-.677 4.668-.19l-.568.362c-3.765 2.39-8.921 5.663-6.499 9.535 2.034 3.252 5.704 2.789 7.59 1.728l6.711-3.353 4.981 4.977 3 2.998c.1.1.21.187.325.262.045.029.094.049.141.074.072.039.142.08.218.109.067.026.136.042.205.061.058.016.116.035.175.045.071.013.142.016.213.021.046.003.091.013.136.013.015 0 .03-.006.045-.007.026-.001.052.005.077.003-.079.688-.25 1.291-.548 1.593z"/></svg>
