<svg fill="#FF9635" xmlns="http://www.w3.org/2000/svg" viewBox="0 0 48 48"><path d="M24 1C11.318 1 1 11.318 1 24s10.318 23 23 23 23-10.318 23-23S36.682 1 24 1zm0 42C13.523 43 5 34.477 5 24S13.523 5 24 5s19 8.523 19 19-8.523 19-19 19z"/><path d="M30.039 31.182c-.032.018-3.328 1.764-5.846.089-.318-.212-.63-.408-.935-.589.052-1.722-.338-3.689-.813-5.681H26a2 2 0 000-4h-4.522c-.306-1.388-.511-2.656-.382-3.378.411-2.295 2.508-2.71 3.141-2.783 1.47-.168 3.247.37 3.925 1.95a2 2 0 003.676-1.578c-1.291-3.004-4.523-4.752-8.057-4.346-3.436.395-6.035 2.77-6.622 6.052-.207 1.158-.06 2.557.236 4.083H16a2 2 0 000 4h2.328c.313 1.267.676 2.803.853 4.116-1.129-.125-2.091.111-2.879.709-1.127.855-1.58 2.37-1.126 3.769.437 1.347 1.584 2.235 2.921 2.263 1.868.032 3.061-.645 3.752-1.34l.128.084c1.581 1.05 3.24 1.398 4.742 1.398 2.833 0 5.108-1.236 5.252-1.315a1.995 1.995 0 00.778-2.707 2.005 2.005 0 00-2.71-.796z"/></svg>