<svg fill="#4ECDBE" xmlns="http://www.w3.org/2000/svg" viewBox="0 0 48 48"><style></style><g id="Content"><path d="M29.33 14.538a2.01 2.01 0 0 0 2.843-2.843l-7.107-7.107a2.01 2.01 0 0 0-2.843 2.843l7.107 7.107zM41.492 33.812L30.122 21.02a2.009 2.009 0 0 0-1.443-.674 2 2 0 0 0-1.306.446L26.21 19.08l.475-.475a2.003 2.003 0 0 0 1.935-3.356l-.711-.711-5.685-5.685-.711-.711a2.01 2.01 0 0 0-2.843 0 2 2 0 0 0-.513 1.935l-3.04 3.04-3.04 3.04a2.003 2.003 0 0 0-1.935 3.356l.711.711 5.685 5.685.711.711a2.01 2.01 0 0 0 2.843 0 2 2 0 0 0 .513-1.935l.475-.475 1.712 1.163a2 2 0 0 0-.446 1.306c.016.553.26 1.075.674 1.443l12.792 11.371a2.01 2.01 0 0 0 2.757-.081l2.843-2.843a2.011 2.011 0 0 0 .08-2.757zM22.778 16.826a3.005 3.005 0 0 0-.631 3.322 3.005 3.005 0 0 0-3.322.631l-.866.866-2.843-2.843 2.843-2.843 2.843-2.843 2.843 2.843-.867.867zm14.288 18.402l-9.782-8.695 1.249-1.249 8.695 9.782-.162.162zM13.695 30.172a2.01 2.01 0 0 0 2.843-2.843l-7.107-7.107a2.01 2.01 0 0 0-2.843 2.843l7.107 7.107zM24 38H8a2 2 0 0 0 0 4h16a2 2 0 0 0 0-4z"/></g></svg>