<svg fill="#2042AD" xmlns="http://www.w3.org/2000/svg" viewBox="0 0 48 48"><style></style><g id="Content"><path d="M36.288 35.369c.182-.202.418-.43.688-.694C38.932 32.767 43 28.794 43 21.078c0-9.607-6.489-17.036-15.779-18.066-6.162-.684-12.084 1.072-16.241 4.818-3.16 2.846-4.96 6.59-4.938 10.271.004.686.213 1.572.557 2.95.161.645.431 1.725.442 2.028 0 1.133-1.464 3.522-2.338 4.95-1.367 2.232-2.271 3.707-1.32 5.129 1.595 2.387 3.157 2.946 4.068 3.221.239.592.485 1.378.726 2.144.758 2.416 1.412 4.503 2.968 5.278 2.847 1.422 11.142.772 14.29-2.367 2.333-2.328 3.371-7.953 3.556-9.057a2 2 0 0 0-3.946-.66c-.374 2.223-1.377 5.829-2.436 6.886-1.844 1.837-7.947 2.21-9.514 1.687-.336-.521-.811-2.033-1.102-2.963-.371-1.183-.722-2.3-1.166-3.186-.55-1.096-1.56-1.395-2.102-1.555-.444-.131-.9-.266-1.505-.966.242-.439.603-1.027.893-1.501 1.372-2.24 2.927-4.778 2.927-7.039 0-.696-.212-1.597-.562-2.996-.159-.638-.425-1.705-.438-2.005-.016-2.541 1.302-5.192 3.614-7.275 3.31-2.981 8.087-4.373 13.122-3.814C35.222 7.924 39 14.739 39 21.078c0 6.031-3.016 8.976-4.818 10.735a20.23 20.23 0 0 0-.869.883c-2.804 3.122-.016 9.362.906 11.201a2 2 0 1 0 3.577-1.793c-1.55-3.09-2.074-6.104-1.508-6.735z"/><path d="M33.906 26.478c1.637-1.492 2.438-4.704 1.951-7.81-.599-3.811-2.919-6.817-6.534-8.465-4.615-2.104-9.32-1.438-12.588 1.784-2.461 2.426-3.374 5.743-2.271 8.255 1.229 2.804 3.333 4.65 5.922 5.2a7.28 7.28 0 0 0 6.405-1.744c2.489-2.271 2.062-4.979.532-6.656-1.403-1.538-3.753-2.308-5.261-.935a2 2 0 0 0 1.992 3.371c.203.123.442.352.496.555.046.175-.217.491-.455.708a3.233 3.233 0 0 1-2.88.788c-1.294-.275-2.392-1.302-3.09-2.894-.356-.813.019-2.421 1.417-3.799.98-.965 3.731-2.994 8.12-.993 3.016 1.375 3.972 3.72 4.242 5.446.353 2.243-.345 3.915-.694 4.233a2.001 2.001 0 0 0 2.696 2.956z"/></g></svg>