<?xml version="1.0" encoding="utf-8"?>
<!-- Generator: Adobe Illustrator 24.1.2, SVG Export Plug-In . SVG Version: 6.00 Build 0)  -->
<svg version="1.1" xmlns="http://www.w3.org/2000/svg" xmlns:xlink="http://www.w3.org/1999/xlink" x="0px" y="0px"
	 viewBox="0 0 48 48" style="enable-background:new 0 0 48 48;" xml:space="preserve">
<style type="text/css">
	.st0{display:none;}
	.st1{display:inline;opacity:0.5;fill:#5763CE;}
	.st2{display:inline;opacity:0.5;fill:#5763CD;}
</style>
<g id="Grids" class="st0">
	<path class="st1" d="M24.125,0h-0.25H0v23.875v0.25V48h23.875h0.25H48V24.125v-0.25V0H24.125z M0.25,0.427L1,1.177v22.698H0.25
		V0.427z M0.25,24.125H1v22.698l-0.75,0.75V24.125z M23.875,47.75H0.427L1.177,47h22.698V47.75z M2,24.125v5.668
		c-0.477-1.812-0.736-3.711-0.747-5.668H2z M1.253,23.875C1.264,21.918,1.523,20.019,2,18.207v5.668H1.253z M2.177,46H17.28
		c1.08,0.33,2.194,0.582,3.335,0.75H1.427L2.177,46z M2.427,45.75l5.4-5.4c2.43,2.403,5.393,4.265,8.695,5.4H2.427z M2.25,45.573
		V31.478c1.135,3.302,2.997,6.266,5.4,8.695L2.25,45.573z M2.25,30.672v-6.547h21.448L7.835,39.989
		C5.283,37.409,3.342,34.225,2.25,30.672z M2.25,23.875v-6.547c1.092-3.553,3.033-6.737,5.585-9.317l15.864,15.864H2.25z
		 M2.25,16.522V2.427l5.4,5.4C5.247,10.257,3.385,13.22,2.25,16.522z M7.827,7.65l-5.4-5.4h14.095
		C13.22,3.385,10.257,5.247,7.827,7.65z M2.177,2l-0.75-0.75h19.189C19.474,1.418,18.361,1.67,17.28,2H2.177z M2,2.177V17.28
		c-0.33,1.08-0.582,2.194-0.75,3.335V1.427L2,2.177z M2,30.72v15.104l-0.75,0.75V27.385C1.418,28.526,1.67,29.639,2,30.72z
		 M23.875,46.747c-1.957-0.011-3.856-0.269-5.668-0.747h5.668V46.747z M23.875,45.75h-6.547c-3.553-1.092-6.737-3.033-9.317-5.585
		l15.864-15.864V45.75z M23.875,23.698L8.011,7.835c2.58-2.552,5.764-4.492,9.317-5.585h6.547V23.698z M23.875,2h-5.668
		c1.812-0.477,3.711-0.736,5.668-0.747V2z M23.875,1H1.177l-0.75-0.75h23.448V1z M24.125,0.25h23.448L46.823,1H24.125V0.25z
		 M46,23.875v-5.668c0.477,1.812,0.736,3.711,0.747,5.668H46z M46.747,24.125c-0.011,1.957-0.269,3.856-0.747,5.668v-5.668H46.747z
		 M45.823,2H30.72c-1.08-0.33-2.194-0.582-3.335-0.75h19.189L45.823,2z M45.573,2.25l-5.4,5.4c-2.43-2.403-5.393-4.265-8.695-5.4
		H45.573z M45.75,2.427v14.095c-1.135-3.302-2.997-6.266-5.4-8.695L45.75,2.427z M45.75,17.328v6.547H24.302L40.165,8.011
		C42.717,10.591,44.658,13.775,45.75,17.328z M45.75,24.125v6.547c-1.092,3.553-3.033,6.737-5.585,9.317L24.302,24.125H45.75z
		 M45.75,31.478v14.095l-5.4-5.4C42.753,37.743,44.615,34.78,45.75,31.478z M40.173,40.35l5.4,5.4H31.478
		C34.78,44.615,37.743,42.753,40.173,40.35z M45.823,46l0.75,0.75H27.385c1.141-0.168,2.255-0.42,3.335-0.75H45.823z M46,45.823
		V30.72c0.33-1.08,0.582-2.194,0.75-3.335v19.189L46,45.823z M46,17.28V2.177l0.75-0.75v19.189C46.582,19.474,46.33,18.361,46,17.28
		z M24.125,1.253C26.082,1.264,27.981,1.523,29.793,2h-5.668V1.253z M24.125,2.25h6.547c3.553,1.092,6.737,3.033,9.317,5.585
		L24.125,23.698V2.25z M24.125,24.302l15.864,15.864c-2.58,2.552-5.764,4.492-9.317,5.585h-6.547V24.302z M24.125,46h5.668
		c-1.812,0.477-3.711,0.736-5.668,0.747V46z M24.125,47.75V47h22.698l0.75,0.75H24.125z M47.75,47.573L47,46.823V24.125h0.75V47.573
		z M47.75,23.875H47V1.177l0.75-0.75V23.875z"/>
</g>
<g id="Content">
	<g>
		<path d="M31,30c-3.86,0-7,3.14-7,7s3.14,7,7,7s7-3.14,7-7S34.86,30,31,30z M31,40c-1.654,0-3-1.346-3-3s1.346-3,3-3s3,1.346,3,3
			S32.654,40,31,40z"/>
		<path d="M35.74,23.823c5.071-5.071,5.705-12.687,1.415-16.977C32.864,2.554,25.248,3.189,20.177,8.26
			c-3.627,3.627-4.971,8.551-3.879,12.634c0.022,0.748,0.006,1.48-0.094,2.177c-0.081,0.616-0.196,1.208-0.378,1.726
			c-0.167,0.507-0.449,0.98-0.601,1.147l-8.64,8.64c-0.781,0.781-0.781,2.048,0,2.83c0.781,0.781,2.048,0.781,2.83,0l8.64-8.64
			c0.167-0.152,0.641-0.433,1.147-0.601c0.518-0.182,1.11-0.297,1.726-0.378c0.697-0.1,1.429-0.116,2.177-0.094
			C27.189,28.793,32.113,27.45,35.74,23.823z M24.53,23.952c-1.116-0.232-2.131-0.737-2.938-1.544
			c-0.807-0.807-1.313-1.822-1.544-2.938c-0.038-0.28-0.076-0.56-0.124-0.837c-0.202-2.482,0.865-5.325,3.083-7.543
			c3.51-3.51,8.588-4.145,11.318-1.415s2.096,7.808-1.415,11.318c-2.218,2.218-5.061,3.285-7.543,3.083
			C25.091,24.028,24.81,23.99,24.53,23.952z"/>
	</g>
</g>
</svg>
