<svg width="608" height="608" viewBox="0 0 608 608" fill="none" xmlns="http://www.w3.org/2000/svg">
<g clip-path="url(#clip0_1_2)">
<path d="M582.871 489.546L144.88 598.75C133.236 601.653 121.357 594.515 118.454 582.871L9.25003 144.88C6.34697 133.236 13.485 121.357 25.1286 118.454L463.12 9.25003C474.764 6.34697 486.643 13.485 489.546 25.1286L598.75 463.12C601.653 474.764 594.515 486.643 582.871 489.546Z" fill="#E52631"/>
<path d="M135.755 300.086C138.368 310.565 141.299 316.945 149.352 314.938C157.406 312.93 156.998 305.92 154.385 295.441L151.216 282.73L177.899 276.077L179.254 281.511C186.1 308.97 182.158 330.359 155.475 337.012C128.015 343.859 112.842 328.06 104.399 294.197L100.408 278.187C91.9887 244.42 98.0413 223.227 125.404 216.404C152.087 209.752 165.609 226.786 172.456 254.245L173.811 259.679L147.128 266.332L143.958 253.621C141.346 243.142 138.415 236.761 130.361 238.769C122.308 240.777 122.716 247.787 125.329 258.266L135.755 300.086V300.086Z" fill="white"/>
<path d="M258.992 254.931C267.411 288.697 261.528 310.57 234.166 317.392C206.706 324.239 191.34 307.664 182.921 273.897L179.292 259.343C170.873 225.577 176.756 203.704 204.119 196.882C231.578 190.035 246.944 206.61 255.363 240.376L258.992 254.931ZM214.544 280.029C217.157 290.509 220.572 297.18 228.625 295.173C236.679 293.165 236.562 285.67 233.95 275.191L223.716 234.147C221.104 223.668 217.688 216.996 209.635 219.004C201.581 221.012 201.698 228.507 204.31 238.986L214.544 280.029Z" fill="white"/>
<path d="M310.859 235.197L311.635 235.003L307.915 172.548L342.458 163.936L371.779 281.536L346.357 287.874L329.664 220.924L328.888 221.117L332.676 291.285L315.502 295.567L285.516 231.931L284.74 232.124L301.432 299.075L277.369 305.075L248.048 187.475L283.367 178.669L310.859 235.197Z" fill="white"/>
<path d="M378.553 154.936L407.874 272.536L380.414 279.382L351.093 161.783L378.553 154.936Z" fill="white"/>
<path d="M433.345 225.888C435.958 236.368 438.889 242.748 446.942 240.74C454.995 238.732 454.588 231.723 451.975 221.243L448.806 208.533L475.489 201.88L476.844 207.313C483.69 234.773 479.747 256.162 453.064 262.815C425.605 269.661 410.432 253.862 401.989 219.999L397.997 203.989C389.578 170.223 395.631 149.029 422.993 142.207C449.676 135.554 463.199 152.589 470.046 180.048L471.4 185.482L444.717 192.135L441.548 179.424C438.935 168.944 436.005 162.564 427.951 164.572C419.898 166.58 420.306 173.589 422.918 184.069L433.345 225.888Z" fill="white"/>
<path d="M195.972 461.41C193.404 457.31 191.298 450.517 186.966 436.447C183.601 425.434 179.336 420.314 170.797 422.443L167.207 423.338L177.828 465.934L150.853 472.659L121.557 355.157L155.323 346.738C181.618 340.182 196.794 351.033 202.019 371.991C206.616 390.427 200.472 401.749 189.046 406.762C202.07 406.504 208.323 414.22 212.97 428.727C217.811 444.01 219.093 449.977 223.067 454.757L195.996 461.507L195.972 461.41ZM164.553 401.12C175.518 398.386 178.989 393.708 176.013 381.773C173.352 371.1 167.801 367.022 156.739 369.78L154.119 370.433L161.934 401.773L164.553 401.12Z" fill="white"/>
<path d="M288.441 438.355L228.865 453.209L199.568 335.706L259.144 320.852L264.781 343.46L232.082 351.613L238.082 375.676L262.339 369.628L267.928 392.042L243.67 398.09L250.13 423.997L282.829 415.844L288.441 438.355V438.355Z" fill="white"/>
<path d="M293.008 312.409L316.692 407.401L348.421 399.49L354.057 422.098L294.869 436.855L265.548 319.255L293.008 312.409Z" fill="white"/>
<path d="M357.241 296.394L386.562 413.994L359.103 420.84L329.782 303.24L357.241 296.394Z" fill="white"/>
<path d="M454.556 396.938L394.98 411.792L365.683 294.289L425.259 279.435L430.896 302.043L398.197 310.196L404.197 334.259L428.454 328.211L434.042 350.625L409.785 356.673L416.244 382.58L448.943 374.427L454.556 396.938Z" fill="white"/>
<path d="M460.96 395.341L431.663 277.838L488.911 263.565L494.547 286.173L464.662 293.624L471.46 320.889L493.389 315.422L498.929 337.642L477.097 343.085L488.443 388.592L460.984 395.438L460.96 395.341Z" fill="white"/>
</g>
<defs>
<clipPath id="clip0_1_2">
<rect width="500" height="500" fill="white" transform="translate(0.945587 121.907) rotate(-14)"/>
</clipPath>
</defs>
</svg>
