<?xml version="1.0" encoding="utf-8"?>
<!-- Generator: Adobe Illustrator 23.0.3, SVG Export Plug-In . SVG Version: 6.00 Build 0)  -->
<svg version="1.1" id="Layer_1" xmlns="http://www.w3.org/2000/svg" xmlns:xlink="http://www.w3.org/1999/xlink" x="0px" y="0px"
	 viewBox="0 0 495 495" style="enable-background:new 0 0 495 495;" xml:space="preserve">
<style type="text/css">
	.st0{fill:#E52631;}
	.st1{fill:#FFFFFF;}
</style>
<path class="st0" d="M473.72,495.5H22.28c-11.98,0-21.78-9.8-21.78-21.78V22.28C0.5,10.3,10.3,0.5,22.28,0.5h451.44
	c11.98,0,21.78,9.8,21.78,21.78v451.44C495.5,485.69,485.7,495.5,473.72,495.5z"/>
<g id="COMIC_RELIEF_-_optical_tweak">
	<path class="st1" d="M85.69,203.52c0,10.77,1.35,17.7,9.62,17.7s9.62-6.92,9.62-17.7v-13.08h27.5v5.58
		c0,28.27-9.04,48.08-36.54,48.08c-28.27,0-39.24-19.04-39.24-53.85v-16.54c0-34.81,10.96-53.85,39.24-53.85
		c27.5,0,36.54,19.81,36.54,48.08v5.58h-27.5v-13.08c0-10.77-1.35-17.7-9.62-17.7s-9.62,6.92-9.62,17.7V203.52z"/>
	<path class="st1" d="M216.21,189.48c0,34.81-10.96,54.62-39.24,54.62c-28.27,0-39.24-19.81-39.24-54.62v-15
		c0-34.81,10.96-54.62,39.24-54.62c28.27,0,39.24,19.81,39.24,54.62V189.48z M166.97,203.13c0,10.77,1.73,18.08,10,18.08
		s10-7.31,10-18.08v-42.31c0-10.77-1.73-18.08-10-18.08s-10,7.31-10,18.08V203.13z"/>
	<path class="st1" d="M271.32,182.94h0.77l11.54-61.55h35.58v121.17h-26.16v-69.05h-0.77l-13.27,69.05h-17.7l-13.66-69.05h-0.77
		v69.05h-24.81V121.39h36.35L271.32,182.94z"/>
	<path class="st1" d="M356.41,121.39v121.17h-28.27V121.39H356.41z"/>
	<path class="st1" d="M392.39,203.52c0,10.77,1.35,17.7,9.62,17.7c8.27,0,9.62-6.92,9.62-17.7v-13.08h27.5v5.58
		c0,28.27-9.04,48.08-36.54,48.08c-28.27,0-39.24-19.04-39.24-53.85v-16.54c0-34.81,10.96-53.85,39.24-53.85
		c27.5,0,36.54,19.81,36.54,48.08v5.58h-27.5v-13.08c0-10.77-1.35-17.7-9.62-17.7c-8.27,0-9.62,6.92-9.62,17.7V203.52z"/>
	<path class="st1" d="M105.12,374.63c-1.54-4.62-1.92-11.73-2.69-26.35c-0.58-11.54-3.46-17.5-12.31-17.5h-3.65v43.85H58.57V253.46
		h34.81c27.12,0,39.24,14.23,39.24,35.77c0,19.04-8.66,28.47-20.97,30.58c12.69,2.88,16.93,11.92,17.89,27.12
		c0.96,15.96,0.77,22.12,3.46,27.7H105.12z M89.16,308.46c11.35,0,15.77-3.65,15.77-15.96c0-10.96-4.42-16.35-15.77-16.35h-2.69
		v32.31H89.16z"/>
	<path class="st1" d="M200.42,374.63h-61.36V253.46h61.36v23.27h-33.66v24.81h25v23.08h-25v26.74h33.66V374.63z"/>
	<path class="st1" d="M235.27,253.46v97.9h32.7v23.27H207V253.46H235.27z"/>
	<path class="st1" d="M301.53,253.46v121.17h-28.27V253.46H301.53z"/>
	<path class="st1" d="M371.6,374.63h-61.36V253.46h61.36v23.27h-33.66v24.81h25v23.08h-25v26.74h33.66V374.63z"/>
	<path class="st1" d="M378.18,374.63V253.46h59.05v23.27h-30.77v28.08h22.5v22.89h-22.5v46.93H378.18z"/>
</g>
</svg>
