<svg fill="#6F3AAB" xmlns="http://www.w3.org/2000/svg" viewBox="0 0 48 48"><path d="M33.775 3.085c-2.298-1.737-4.306-1.128-5.418.02-2.336 2.41-4.985 3.366-7.791 4.378-3.956 1.427-8.44 3.044-12.212 8.868-3.806 5.877-2.362 14.327-.12 18.449 1.117 2.055 2.426 3.097 3.89 3.097 2.433 0 5.264-2.04 7.735-4.414-1.586 3.593-4.367 7.33-9.217 8.581a2 2 0 101.001 3.872c3.415-.881 6.016-2.63 7.996-4.742 1.183 1.214 2.851 1.979 4.852 2.183 4.641.478 11.466-2.298 14.98-8.367 6.087-10.515-.012-27.63-5.696-31.925zm2.234 29.921c-2.575 4.447-7.672 6.731-11.112 6.392-1.348-.138-2.279-.644-2.775-1.506 3.303-5.469 3.752-11.58 3.779-11.994a1.997 1.997 0 00-1.31-2.007 2.003 2.003 0 00-2.296.691c-3.176 4.302-7.776 8.896-9.895 9.289-1.493-1.43-4.212-9.902-.688-15.344 3.039-4.693 6.523-5.95 10.212-7.28 3.05-1.1 6.201-2.237 9.133-5.181.7.361 2.359 2.043 4.052 5.779 2.876 6.339 4.268 15.341.9 21.161z"/></svg>
