<?xml version="1.0" encoding="utf-8"?>
<svg viewBox="0 0 49 32" fill="none" xmlns="http://www.w3.org/2000/svg">
  <path d="M5.94034 31.9872C5.75158 31.4083 5.70125 30.5149 5.60058 28.6903C5.52508 27.2432 5.17274 26.5008 4.0528 26.5008H3.59979V31.9998H0.101562V16.7988H4.46806C7.86562 16.7988 9.38823 18.5857 9.38823 21.2786C9.38823 23.6695 8.30605 24.8523 6.75827 25.1166C8.3438 25.4815 8.88489 26.614 8.99814 28.5141C9.12398 30.5149 9.09881 31.2825 9.42598 31.9872H5.94034ZM3.93955 23.6946C5.36149 23.6946 5.91517 23.2416 5.91517 21.6938C5.91517 20.3222 5.36149 19.6427 3.93955 19.6427H3.59979V23.6946H3.93955Z" fill="#E52631"/>
  <path d="M18.1212 31.9872H10.4326V16.7988H18.1212V19.7182H13.9057V22.8264H17.039V25.7206H13.9057V29.0678H18.1212V31.9872Z" fill="#E52631"/>
  <path d="M22.7391 16.7988V29.0678H26.8413V31.9872H19.2031V16.7988H22.7391Z" fill="#E52631"/>
  <path d="M31.2829 16.7988V31.9872H27.7344V16.7988H31.2829Z" fill="#E52631"/>
  <path d="M40.3057 31.9872H32.6172V16.7988H40.3057V19.7182H36.0903V22.8264H39.2236V25.7206H36.0903V29.0678H40.3057V31.9872Z" fill="#E52631"/>
  <path d="M41.3623 31.9872V16.7988H48.7614V19.7182H44.9109V23.2416H47.7296V26.1107H44.9109V31.9872H41.3623Z" fill="#E52631"/>
  <path d="M3.63665 10.4695C3.63665 11.816 3.80024 12.6842 4.84467 12.6842C5.88911 12.6842 6.05269 11.816 6.05269 10.4695V8.83366H9.50059V9.53834C9.50059 13.0869 8.36807 15.5659 4.92017 15.5659C1.37161 15.5659 0 13.175 0 8.82108V6.74479C0 2.37829 1.37161 0 4.92017 0C8.36807 0 9.50059 2.47896 9.50059 6.02753V6.73221H6.05269V5.09634C6.05269 3.7499 5.88911 2.88164 4.84467 2.88164C3.80024 2.88164 3.63665 3.7499 3.63665 5.09634V10.4695Z" fill="#E52631"/>
  <path d="M20.1353 8.72041C20.1353 13.0869 18.7637 15.5659 15.2151 15.5659C11.6665 15.5659 10.2949 13.0869 10.2949 8.72041V6.84546C10.2949 2.47896 11.6665 0 15.2151 0C18.7637 0 20.1353 2.47896 20.1353 6.84546V8.72041ZM13.9567 10.4192C13.9567 11.7656 14.1707 12.6842 15.2151 12.6842C16.2469 12.6842 16.4735 11.7656 16.4735 10.4192V5.12151C16.4735 3.77507 16.2595 2.85647 15.2151 2.85647C14.1832 2.85647 13.9567 3.77507 13.9567 5.12151V10.4192Z" fill="#E52631"/>
  <path d="M27.3827 7.88999H27.4834L28.9305 0.17627H33.3851V15.3646H30.1134V6.70714H30.0127L28.3517 15.3646H26.137L24.4256 6.70714H24.3249V15.3646H21.2168V0.17627H25.772L27.3827 7.88999Z" fill="#E52631"/>
  <path d="M38.2917 0.17627V15.3646H34.7432V0.17627H38.2917Z" fill="#E52631"/>
  <path d="M43.0497 10.4695C43.0497 11.816 43.2133 12.6842 44.2578 12.6842C45.3022 12.6842 45.4658 11.816 45.4658 10.4695V8.83366H48.9137V9.53834C48.9137 13.0869 47.7812 15.5659 44.3333 15.5659C40.7847 15.5659 39.4131 13.175 39.4131 8.82108V6.74479C39.4131 2.37829 40.7847 0 44.3333 0C47.7812 0 48.9137 2.47896 48.9137 6.02753V6.73221H45.4658V5.09634C45.4658 3.7499 45.3022 2.88164 44.2578 2.88164C43.2133 2.88164 43.0497 3.7499 43.0497 5.09634V10.4695Z" fill="#E52631"/>
</svg>
