<svg version="1.1" id="Content" xmlns="http://www.w3.org/2000/svg" x="0" y="0" viewBox="0 0 48 48" xml:space="preserve"><style></style><path d="M40.811 9.307C36.607 4.664 30.48 2 24 2 11.458 2 2 11.458 2 24s9.458 22 22 22c10.221 0 14.032-3.779 15.29-5.031a2 2 0 0 0 .276-3.268c-.438-.362-1.61-1.049-3.093.427C35.512 39.086 32.585 42 24 42 13.738 42 6 34.262 6 24S13.738 6 24 6c5.353 0 10.398 2.184 13.845 5.991 3.162 3.495 4.642 8.044 4.165 12.81-.364 3.641-1.958 6.013-4.487 6.677-1.853.487-3.658-.145-4.269-1.011-1.001-1.422-.753-4.747.009-8.237 1.035-3.375 2.104-6.939 2.177-7.179a2 2 0 0 0-3.778-1.306 59.59 59.59 0 0 0-.282.732c-1.427-1.455-3.424-2.421-5.724-2.66-3.983-.41-9.547 1.602-12.107 8.643-1.334 3.667-1.19 7.467.384 10.163 1.241 2.126 3.291 3.482 5.929 3.921 4.299.714 7.438-.837 9.464-3.098.254.695.516 1.122.659 1.325 1.66 2.358 5.257 3.443 8.555 2.576 1.987-.522 6.691-2.557 7.451-10.147.59-5.905-1.25-11.549-5.18-15.893zm-2.94 31.888zm-8.676-19.346a233.516 233.516 0 0 1-1.379 4.375c-.413 1.243-2.174 5.229-7.297 4.374-1.468-.245-2.493-.896-3.133-1.993-.967-1.657-.997-4.254-.078-6.779 1.633-4.492 4.727-6.064 7.296-6.064.217 0 .431.011.639.033 1.952.203 4.068 1.433 4.396 3.726.01.074.024.146.043.217a38.984 38.984 0 0 0-.487 2.111z"/></svg>