<svg width="24" height="24" viewBox="0 0 24 24" fill="none" xmlns="http://www.w3.org/2000/svg">
<path d="M11.4995 3.5C11.4995 2.948 11.9475 2.5 12.4995 2.5C17.0415 2.5 21.4995 6.958 21.4995 11.5C21.4995 12.052 21.0515 12.5 20.4995 12.5C19.9475 12.5 19.4995 12.052 19.4995 11.5C19.4995 8.0325 15.967 4.5 12.4995 4.5C11.9475 4.5 11.4995 4.052 11.4995 3.5Z" fill="#FFFFFF"/>
<path fill-rule="evenodd" clip-rule="evenodd" d="M19.8065 17.3886C18.012 15.5851 16.576 14.1631 14.882 14.2541C13.932 14.3056 13.071 14.8226 12.25 15.8346C12.0505 15.8816 11.1785 15.7606 9.70854 14.2906C8.23804 12.8201 8.11454 11.9496 8.16454 11.7491C9.17604 10.9286 9.69354 10.0676 9.74454 9.11755C9.83751 7.40352 8.41382 5.98733 6.61102 4.19403L6.60954 4.19255L6.20954 3.79305C5.93154 3.51505 5.51704 3.42655 5.15154 3.56405C3.32754 4.24805 2.08754 5.70855 1.66204 7.67605C0.960038 10.9181 2.54404 14.9526 5.79604 18.2046C8.53754 20.9466 11.8355 22.5026 14.7455 22.5026C15.2875 22.5026 15.816 22.4486 16.3245 22.3386C18.292 21.9121 19.752 20.6731 20.4365 18.8486C20.574 18.4816 20.4845 18.0676 20.207 17.7906L19.8065 17.3886ZM15.9005 20.3836C13.358 20.9351 9.94454 19.5246 7.20954 16.7901C4.47504 14.0556 3.06504 10.6441 3.61604 8.09905C3.78504 7.31805 4.21604 6.31955 5.29054 5.70055C6.59004 6.99305 7.79154 8.20805 7.74804 9.00955C7.72904 9.36455 7.43604 9.77105 6.87804 10.2181C6.45104 10.5596 6.19704 11.0826 6.16304 11.6896C6.11804 12.5036 6.45104 13.8611 8.29504 15.7046C10.139 17.5486 11.5 17.8816 12.3105 17.8366C12.918 17.8031 13.4405 17.5491 13.7815 17.1221C14.2285 16.5636 14.635 16.2706 14.99 16.2511C15.81 16.2126 17.007 17.4101 18.2985 18.7086C17.68 19.7831 16.6815 20.2141 15.9005 20.3836Z" fill="#FFFFFF"/>
<path d="M15.4995 11.5C15.4995 12.052 15.9475 12.5 16.4995 12.5C17.0515 12.5 17.4995 12.052 17.4995 11.5C17.4995 8.93 15.07 6.5 12.4995 6.5C11.9475 6.5 11.4995 6.948 11.4995 7.5C11.4995 8.052 11.9475 8.5 12.4995 8.5C13.9575 8.5 15.4995 10.042 15.4995 11.5Z" fill="#FFFFFF"/>
</svg>
