<svg width="24" height="24" viewBox="0 0 24 24" fill="none" xmlns="http://www.w3.org/2000/svg">
<path d="M8.5 10.5C8.5 11.327 7.827 12 7 12C6.173 12 5.5 11.327 5.5 10.5C5.5 9.673 6.173 9 7 9C7.827 9 8.5 9.673 8.5 10.5ZM12 9C11.173 9 10.5 9.673 10.5 10.5C10.5 11.327 11.173 12 12 12C12.827 12 13.5 11.327 13.5 10.5C13.5 9.673 12.827 9 12 9ZM17 9C16.173 9 15.5 9.673 15.5 10.5C15.5 11.327 16.173 12 17 12C17.827 12 18.5 11.327 18.5 10.5C18.5 9.673 17.827 9 17 9ZM23 5V16C23 16.1075 22.983 16.2145 22.9485 16.316L20.9485 22.316C20.8205 22.7 20.474 22.9685 20.0705 22.9975C20.047 22.9995 20.0235 23 19.9995 23C19.623 23 19.276 22.7875 19.1055 22.4475L17.382 19H4C2.318 19 1 17.682 1 16V5C1 3.318 2.318 2 4 2H20C21.682 2 23 3.318 23 5ZM21 5C21 4.4205 20.5795 4 20 4H4C3.4205 4 3 4.4205 3 5V16C3 16.5795 3.4205 17 4 17H18C18.379 17 18.725 17.214 18.8945 17.5525L19.815 19.3935L21 15.8375V5Z" fill="#FFFFFF"/>
</svg>
