<svg version="1.1" id="social_icon" xmlns="http://www.w3.org/2000/svg" x="0" y="0" viewBox="0 0 108 108" xml:space="preserve"><style>.st1{fill:#fff}</style><g id="instagram"><circle transform="rotate(-67.5 54 53.999)" cx="54" cy="54" fill="#e52630" r="54"/><path class="st1" d="M67.45 21h-26.9c-10.29 0-18.71 8.42-18.71 18.71v28.66c0 10.29 8.42 18.71 18.71 18.71h26.9c10.29 0 18.71-8.42 18.71-18.71V39.71C86.16 29.42 77.74 21 67.45 21zm13.77 47.37c0 3.66-1.44 7.11-4.05 9.72s-6.06 4.05-9.72 4.05h-26.9c-3.66 0-7.11-1.44-9.72-4.05-2.61-2.61-4.05-6.06-4.05-9.72V39.71c0-3.66 1.44-7.11 4.05-9.72 2.61-2.61 6.06-4.05 9.72-4.05h26.9c3.66 0 7.11 1.44 9.72 4.05 2.61 2.61 4.05 6.06 4.05 9.72v28.66z"/><path class="st1" d="M72.1 39.99c-2.32 0-4.19-1.88-4.19-4.19 0-2.32 1.88-4.19 4.19-4.19a4.189 4.189 0 110 8.38zM54.1 36.07c-9.78 0-17.71 7.93-17.71 17.71 0 9.78 7.93 17.71 17.71 17.71 9.78 0 17.71-7.93 17.71-17.71 0-9.78-7.93-17.71-17.71-17.71zm-.09 29.33c-6.41 0-11.6-5.19-11.6-11.6s5.19-11.6 11.6-11.6c6.41 0 11.6 5.19 11.6 11.6s-5.19 11.6-11.6 11.6z"/></g></svg>