<svg xmlns="http://www.w3.org/2000/svg" viewBox="0 0 512 512"><path d="M256 49.471c67.266 0 75.233.257 101.797 1.469 24.562 1.121 37.901 5.224 46.778 8.674 11.759 4.57 20.151 10.029 28.966 18.845 8.816 8.815 14.275 17.208 18.845 28.966 3.45 8.877 7.554 22.216 8.674 46.778 1.212 26.565 1.469 34.532 1.469 101.798s-.257 75.233-1.469 101.797c-1.121 24.562-5.225 37.901-8.674 46.778-4.57 11.759-10.029 20.151-18.845 28.966-8.816 8.816-17.208 14.275-28.966 18.845-8.877 3.45-22.216 7.554-46.778 8.674-26.56 1.212-34.527 1.469-101.797 1.469s-75.237-.257-101.797-1.469c-24.562-1.121-37.901-5.225-46.778-8.674-11.759-4.57-20.151-10.029-28.966-18.845-8.815-8.815-14.275-17.208-18.845-28.966-3.45-8.877-7.554-22.216-8.674-46.778-1.212-26.564-1.469-34.532-1.469-101.798s.257-75.233 1.469-101.797c1.121-24.562 5.224-37.901 8.674-46.778 4.57-11.759 10.029-20.151 18.845-28.966 8.815-8.815 17.208-14.275 28.966-18.845 8.877-3.45 22.216-7.554 46.778-8.674 26.564-1.213 34.531-1.469 101.797-1.469m0-45.392c-68.418 0-76.997.29-103.866 1.516-26.815 1.224-45.127 5.482-61.151 11.71-16.566 6.438-30.615 15.052-44.62 29.057-14.005 14.005-22.619 28.055-29.057 44.62-6.228 16.025-10.486 34.337-11.71 61.151C4.369 179.003 4.079 187.582 4.079 256s.29 76.997 1.516 103.866c1.224 26.815 5.482 45.127 11.71 61.151 6.438 16.566 15.052 30.615 29.057 44.62 14.005 14.005 28.055 22.619 44.62 29.057 16.025 6.228 34.337 10.486 61.151 11.71 26.87 1.226 35.449 1.516 103.866 1.516s76.997-.29 103.866-1.516c26.815-1.224 45.127-5.482 61.151-11.71 16.566-6.438 30.615-15.052 44.62-29.057 14.005-14.005 22.619-28.055 29.057-44.62 6.228-16.025 10.486-34.337 11.71-61.151 1.226-26.87 1.516-35.449 1.516-103.866s-.29-76.997-1.516-103.866c-1.224-26.815-5.482-45.127-11.71-61.151-6.438-16.566-15.052-30.615-29.057-44.62-14.005-14.005-28.055-22.619-44.62-29.057-16.025-6.228-34.337-10.486-61.151-11.71C332.997 4.369 324.418 4.079 256 4.079zm0 122.556c-71.446 0-129.365 57.918-129.365 129.365S184.554 385.365 256 385.365 385.365 327.446 385.365 256 327.446 126.635 256 126.635zm0 213.338c-46.377 0-83.974-37.596-83.974-83.973s37.596-83.974 83.974-83.974c46.377 0 83.974 37.596 83.974 83.974S302.377 339.973 256 339.973zM390.476 91.294c-16.696 0-30.23 13.535-30.23 30.23s13.535 30.23 30.23 30.23c16.696 0 30.23-13.535 30.23-30.23s-13.534-30.23-30.23-30.23z" fill="#fff"/></svg>