<?xml version="1.0" encoding="utf-8"?>
<!-- Generator: Adobe Illustrator 23.0.4, SVG Export Plug-In . SVG Version: 6.00 Build 0)  -->
<svg version="1.1" id="social_icon" xmlns="http://www.w3.org/2000/svg" xmlns:xlink="http://www.w3.org/1999/xlink" x="0px"
	 y="0px" viewBox="0 0 108 108" style="enable-background:new 0 0 108 108;" xml:space="preserve">
<style type="text/css">
	.st0{fill:#E52630;}
	.st1{fill:#FFFFFF;}
</style>
<g id="instagram">
	<ellipse transform="matrix(0.3827 -0.9239 0.9239 0.3827 -16.5544 83.2246)" class="st0" cx="54" cy="54" rx="54" ry="54"/>
	<path class="st1" d="M67.45,21h-26.9c-10.29,0-18.71,8.42-18.71,18.71v28.66c0,10.29,8.42,18.71,18.71,18.71h26.9
		c10.29,0,18.71-8.42,18.71-18.71V39.71C86.16,29.42,77.74,21,67.45,21z M81.22,68.37c0,3.66-1.44,7.11-4.05,9.72
		s-6.06,4.05-9.72,4.05h-26.9c-3.66,0-7.11-1.44-9.72-4.05c-2.61-2.61-4.05-6.06-4.05-9.72V39.71c0-3.66,1.44-7.11,4.05-9.72
		c2.61-2.61,6.06-4.05,9.72-4.05h26.9c3.66,0,7.11,1.44,9.72,4.05c2.61,2.61,4.05,6.06,4.05,9.72V68.37z"/>
	<path class="st1" d="M72.1,39.99c-2.32,0-4.19-1.88-4.19-4.19c0-2.32,1.88-4.19,4.19-4.19c2.32,0,4.19,1.88,4.19,4.19
		C76.29,38.11,74.41,39.99,72.1,39.99z"/>
	<path class="st1" d="M54.1,36.07c-9.78,0-17.71,7.93-17.71,17.71c0,9.78,7.93,17.71,17.71,17.71c9.78,0,17.71-7.93,17.71-17.71
		C71.81,44,63.88,36.07,54.1,36.07z M54.01,65.4c-6.41,0-11.6-5.19-11.6-11.6s5.19-11.6,11.6-11.6c6.41,0,11.6,5.19,11.6,11.6
		S60.42,65.4,54.01,65.4z"/>
</g>
</svg>
