<?xml version="1.0" encoding="utf-8"?>
<!-- Generator: Adobe Illustrator 23.0.4, SVG Export Plug-In . SVG Version: 6.00 Build 0)  -->
<svg version="1.1" id="social_icon" xmlns="http://www.w3.org/2000/svg" xmlns:xlink="http://www.w3.org/1999/xlink" x="0px"
	 y="0px" viewBox="0 0 108 108" style="enable-background:new 0 0 108 108;" xml:space="preserve">
<style type="text/css">
	.st0{fill:#E52630;}
	.st1{fill:#FFFFFF;}
</style>
<g id="twitter">
	<circle class="st0" cx="54" cy="54" r="54"/>
	<path class="st1" d="M81.04,45.03c0.03,0.53,0.04,1.07,0.04,1.61c0,16.44-12.51,35.39-35.39,35.39c-7.03,0-13.56-2.06-19.07-5.59
		c0.98,0.11,1.97,0.17,2.97,0.17c5.83,0,11.19-1.98,15.45-5.32c-5.44-0.1-10.04-3.7-11.62-8.64c0.76,0.14,1.54,0.22,2.34,0.22
		c1.14,0,2.24-0.16,3.28-0.44c-5.68-1.15-9.98-6.17-9.98-12.2c0-0.05,0-0.1,0-0.16c1.68,0.93,3.6,1.49,5.64,1.55
		c-3.34-2.23-5.53-6.04-5.53-10.35c0-2.28,0.61-4.42,1.68-6.25c6.13,7.53,15.3,12.48,25.64,13c-0.21-0.91-0.32-1.86-0.32-2.83
		c0-6.87,5.57-12.43,12.44-12.43c3.57,0,6.81,1.51,9.08,3.92c2.83-0.56,5.5-1.59,7.9-3.02c-0.93,2.91-2.9,5.34-5.47,6.88
		c2.52-0.3,4.91-0.97,7.14-1.95C85.59,41.08,83.48,43.27,81.04,45.03z"/>
</g>
</svg>
