<svg xmlns="http://www.w3.org/2000/svg" viewBox="0 0 108 108"><circle cx="54" cy="54" r="54" fill="#e52630"/><path d="M81.04 45.03c.03.53.04 1.07.04 1.61 0 16.44-12.51 35.39-35.39 35.39a35.21 35.21 0 01-19.07-5.59c.98.11 1.97.17 2.97.17 5.83 0 11.19-1.98 15.45-5.32-5.44-.1-10.04-3.7-11.62-8.64.76.14 1.54.22 2.34.22 1.14 0 2.24-.16 3.28-.44-5.68-1.15-9.98-6.17-9.98-12.2v-.16c1.68.93 3.6 1.49 5.64 1.55a12.425 12.425 0 01-5.53-10.35c0-2.28.61-4.42 1.68-6.25 6.13 7.53 15.3 12.48 25.64 13-.21-.91-.32-1.86-.32-2.83 0-6.87 5.57-12.43 12.44-12.43 3.57 0 6.81 1.51 9.08 3.92 2.83-.56 5.5-1.59 7.9-3.02-.93 2.91-2.9 5.34-5.47 6.88 2.52-.3 4.91-.97 7.14-1.95a25.384 25.384 0 01-6.22 6.44z" fill="#fff"/></svg>