<svg width="48" height="48" viewBox="0 0 48 48" fill="none" xmlns="http://www.w3.org/2000/svg">
<path fill-rule="evenodd" clip-rule="evenodd" d="M24 48C37.2548 48 48 37.2548 48 24C48 10.7452 37.2548 0 24 0C10.7452 0 0 10.7452 0 24C0 37.2548 10.7452 48 24 48ZM37.0874 9.18501L26.6638 21.3016H26.6632L38 37.8003H29.6623L22.0281 26.6901L12.4702 37.8003H10L20.9315 25.0942L10 9.18501H18.3377L25.5665 19.7057L34.6174 9.18501H37.0874ZM22.1729 23.6501L23.2805 25.2343V25.2349L30.8244 36.0253H34.6185L25.3739 22.8019L24.2663 21.2177L17.1544 11.0446H13.3603L22.1729 23.6501Z" fill="white"/>
</svg>
