<svg version="1.1" id="Layer_1" xmlns="http://www.w3.org/2000/svg" x="0" y="0" viewBox="0 0 108 108" xml:space="preserve"><style>.st0,.st2{display:none;fill:#e52630}.st2{display:inline}</style><path class="st0" d="M54 0C24.18 0 0 24.18 0 54c0 29.83 24.18 54 54 54s54-24.17 54-54c0-29.82-24.18-54-54-54zm14.91 54.16H59.2v34.63H44.81V54.16h-6.84V41.93h6.84v-7.92c0-5.67 2.69-14.53 14.52-14.53l10.66.04V31.4h-7.74c-1.26 0-3.05.63-3.05 3.33v7.19h10.97l-1.26 12.24z"/><path class="st0" d="M54 0C24.18 0 0 24.18 0 54c0 29.83 24.18 54 54 54s54-24.17 54-54c0-29.82-24.18-54-54-54zm8.26 73.93c-4.92 0-9.56-2.66-11.14-5.68 0 0-2.65 10.51-3.21 12.54-1.98 7.17-7.79 14.35-8.24 14.93-.32.41-1.01.28-1.09-.26-.13-.91-1.61-9.96.14-17.34.88-3.7 5.87-24.86 5.87-24.86s-1.46-2.91-1.46-7.21c0-6.77 3.92-11.81 8.8-11.81 4.15 0 6.15 3.11 6.15 6.84 0 4.17-2.65 10.41-4.02 16.19-1.14 4.84 2.42 8.78 7.2 8.78 8.64 0 14.47-11.1 14.47-24.26 0-10-6.73-17.48-18.98-17.48-13.83 0-22.46 10.33-22.46 21.85 0 3.97 1.17 6.78 3.01 8.94.84 1 .96 1.41.65 2.55-.22.83-.72 2.86-.93 3.65-.3 1.16-1.24 1.57-2.28 1.14-6.37-2.6-9.34-9.58-9.34-17.43 0-12.95 10.93-28.49 32.61-28.49 17.42 0 28.88 12.6 28.88 26.14-.01 17.9-9.96 31.27-24.63 31.27z"/><path class="st0" d="M54 0C24.18 0 0 24.18 0 54c0 29.83 24.18 54 54 54s54-24.17 54-54c0-29.82-24.18-54-54-54zm27.04 45.03c.03.53.04 1.07.04 1.61 0 16.44-12.51 35.39-35.39 35.39a35.21 35.21 0 01-19.07-5.59c.98.11 1.97.17 2.97.17 5.83 0 11.19-1.98 15.45-5.32-5.44-.1-10.04-3.7-11.62-8.64.76.14 1.54.22 2.34.22 1.14 0 2.24-.16 3.28-.44-5.68-1.15-9.98-6.17-9.98-12.2v-.16c1.68.93 3.6 1.49 5.64 1.55a12.425 12.425 0 01-5.53-10.35c0-2.28.61-4.42 1.68-6.25 6.13 7.53 15.3 12.48 25.64 13-.21-.91-.32-1.86-.32-2.83 0-6.87 5.57-12.43 12.44-12.43 3.57 0 6.81 1.51 9.08 3.92 2.83-.56 5.5-1.59 7.9-3.02-.93 2.91-2.9 5.34-5.47 6.88 2.52-.3 4.91-.97 7.14-1.95a25.384 25.384 0 01-6.22 6.44z"/><circle cx="54" cy="54" r="54" fill="#e52630"/><path d="M85.96 37.84a8.407 8.407 0 00-5.9-5.94C74.86 30.5 54 30.5 54 30.5s-20.86 0-26.06 1.4c-2.87.77-5.13 3.05-5.9 5.94C20.65 43.08 20.65 54 20.65 54s0 10.92 1.39 16.16a8.407 8.407 0 005.9 5.94C33.14 77.5 54 77.5 54 77.5s20.86 0 26.06-1.4c2.87-.77 5.13-3.05 5.9-5.94C87.35 64.92 87.35 54 87.35 54s0-10.92-1.39-16.16zM47.18 63.92V44.08L64.61 54l-17.43 9.92z" fill="#fff"/></svg>