<?xml version="1.0" encoding="utf-8"?>
<!-- Generator: Adobe Illustrator 23.0.4, SVG Export Plug-In . SVG Version: 6.00 Build 0)  -->
<svg version="1.1" id="Layer_1" xmlns="http://www.w3.org/2000/svg" xmlns:xlink="http://www.w3.org/1999/xlink" x="0px" y="0px"
	 viewBox="0 0 108 108" style="enable-background:new 0 0 108 108;" xml:space="preserve">
<style type="text/css">
	.st0{display:none;fill:#E52630;}
	.st1{display:none;}
	.st2{display:inline;fill:#E52630;}
	.st3{fill:#E52630;}
	.st4{fill:#FFFFFF;}
</style>
<path class="st0" d="M54,0C24.18,0,0,24.18,0,54c0,29.83,24.18,54,54,54c29.82,0,54-24.17,54-54C108,24.18,83.82,0,54,0z
	 M68.91,54.16H59.2c0,15.52,0,34.63,0,34.63H44.81c0,0,0-18.92,0-34.63h-6.84V41.93h6.84v-7.92c0-5.67,2.69-14.53,14.52-14.53
	l10.66,0.04V31.4c0,0-6.48,0-7.74,0c-1.26,0-3.05,0.63-3.05,3.33v7.19h10.97L68.91,54.16z"/>
<g class="st1">
	<path class="st2" d="M54,0C24.18,0,0,24.18,0,54c0,29.83,24.18,54,54,54c29.82,0,54-24.17,54-54C108,24.18,83.82,0,54,0z
		 M86.16,68.37c0,10.29-8.42,18.71-18.71,18.71h-26.9c-10.29,0-18.71-8.42-18.71-18.71V39.71C21.83,29.42,30.26,21,40.55,21h26.9
		c10.29,0,18.71,8.42,18.71,18.71V68.37z"/>
	<path class="st2" d="M67.45,25.94h-26.9c-3.66,0-7.11,1.44-9.72,4.05c-2.61,2.61-4.05,6.06-4.05,9.72v28.66
		c0,3.66,1.44,7.11,4.05,9.72s6.06,4.05,9.72,4.05h26.9c3.66,0,7.11-1.44,9.72-4.05s4.05-6.06,4.05-9.72V39.71
		c0-3.66-1.44-7.11-4.05-9.72C74.56,27.38,71.11,25.94,67.45,25.94z M54.1,71.5c-9.78,0-17.71-7.93-17.71-17.71
		c0-9.78,7.93-17.71,17.71-17.71c9.78,0,17.71,7.93,17.71,17.71C71.81,63.57,63.88,71.5,54.1,71.5z M72.1,39.99
		c-2.32,0-4.19-1.88-4.19-4.19c0-2.32,1.88-4.19,4.19-4.19c2.32,0,4.19,1.88,4.19,4.19C76.29,38.11,74.41,39.99,72.1,39.99z"/>
	<path class="st2" d="M54.01,42.2c-6.41,0-11.6,5.19-11.6,11.6s5.19,11.6,11.6,11.6c6.41,0,11.6-5.19,11.6-11.6
		S60.42,42.2,54.01,42.2z"/>
</g>
<path class="st0" d="M54,0C24.18,0,0,24.18,0,54c0,29.83,24.18,54,54,54c29.82,0,54-24.17,54-54C108,24.18,83.82,0,54,0z
	 M62.26,73.93c-4.92,0-9.56-2.66-11.14-5.68c0,0-2.65,10.51-3.21,12.54c-1.98,7.17-7.79,14.35-8.24,14.93
	c-0.32,0.41-1.01,0.28-1.09-0.26c-0.13-0.91-1.61-9.96,0.14-17.34c0.88-3.7,5.87-24.86,5.87-24.86s-1.46-2.91-1.46-7.21
	c0-6.77,3.92-11.81,8.8-11.81c4.15,0,6.15,3.11,6.15,6.84c0,4.17-2.65,10.41-4.02,16.19c-1.14,4.84,2.42,8.78,7.2,8.78
	c8.64,0,14.47-11.1,14.47-24.26c0-10-6.73-17.48-18.98-17.48c-13.83,0-22.46,10.33-22.46,21.85c0,3.97,1.17,6.78,3.01,8.94
	c0.84,1,0.96,1.41,0.65,2.55c-0.22,0.83-0.72,2.86-0.93,3.65c-0.3,1.16-1.24,1.57-2.28,1.14c-6.37-2.6-9.34-9.58-9.34-17.43
	c0-12.95,10.93-28.49,32.61-28.49c17.42,0,28.88,12.6,28.88,26.14C86.88,60.56,76.93,73.93,62.26,73.93z"/>
<path class="st0" d="M54,0C24.18,0,0,24.18,0,54c0,29.83,24.18,54,54,54c29.82,0,54-24.17,54-54C108,24.18,83.82,0,54,0z
	 M81.04,45.03c0.03,0.53,0.04,1.07,0.04,1.61c0,16.44-12.51,35.39-35.39,35.39c-7.03,0-13.56-2.06-19.07-5.59
	c0.98,0.11,1.97,0.17,2.97,0.17c5.83,0,11.19-1.98,15.45-5.32c-5.44-0.1-10.04-3.7-11.62-8.64c0.76,0.14,1.54,0.22,2.34,0.22
	c1.14,0,2.24-0.16,3.28-0.44c-5.68-1.15-9.98-6.17-9.98-12.2c0-0.05,0-0.1,0-0.16c1.68,0.93,3.6,1.49,5.64,1.55
	c-3.34-2.23-5.53-6.04-5.53-10.35c0-2.28,0.61-4.42,1.68-6.25c6.13,7.53,15.3,12.48,25.64,13c-0.21-0.91-0.32-1.86-0.32-2.83
	c0-6.87,5.57-12.43,12.44-12.43c3.57,0,6.81,1.51,9.08,3.92c2.83-0.56,5.5-1.59,7.9-3.02c-0.93,2.91-2.9,5.34-5.47,6.88
	c2.52-0.3,4.91-0.97,7.14-1.95C85.59,41.08,83.48,43.27,81.04,45.03z"/>
<circle class="st3" cx="54" cy="54" r="54"/>
<path class="st4" d="M85.96,37.84c-0.77-2.89-3.03-5.16-5.9-5.94C74.86,30.5,54,30.5,54,30.5s-20.86,0-26.06,1.4
	c-2.87,0.77-5.13,3.05-5.9,5.94C20.65,43.08,20.65,54,20.65,54s0,10.92,1.39,16.16c0.77,2.89,3.03,5.16,5.9,5.94
	C33.14,77.5,54,77.5,54,77.5s20.86,0,26.06-1.4c2.87-0.77,5.13-3.05,5.9-5.94C87.35,64.92,87.35,54,87.35,54
	S87.35,43.08,85.96,37.84z M47.18,63.92V44.08L64.61,54L47.18,63.92z"/>
</svg>
