<svg fill="#FFFFFF" xmlns="http://www.w3.org/2000/svg" viewBox="0 0 48 48"><path d="M36.29 35.399c.182-.201.418-.428.688-.692C38.933 32.805 43 28.845 43 21.153c0-9.576-6.488-16.982-15.776-18.009-6.161-.682-12.081 1.069-16.237 4.802-3.159 2.837-4.959 6.569-4.936 10.238.004.683.213 1.567.557 2.94.161.643.431 1.719.442 2.021 0 1.13-1.464 3.511-2.337 4.934-1.367 2.225-2.27 3.695-1.32 5.113 1.594 2.379 3.157 2.937 4.067 3.21.239.59.485 1.374.725 2.137.758 2.408 1.412 4.489 2.967 5.262 2.846 1.417 11.139.77 14.287-2.36 2.332-2.32 3.37-7.928 3.555-9.028a1.994 1.994 0 00-1.641-2.294 1.994 1.994 0 00-2.303 1.636c-.374 2.216-1.377 5.81-2.435 6.864-1.843 1.832-7.945 2.203-9.511 1.681-.336-.519-.81-2.027-1.101-2.954-.371-1.179-.722-2.293-1.166-3.176-.55-1.093-1.559-1.39-2.101-1.55-.444-.131-.9-.265-1.505-.963.242-.438.602-1.024.892-1.496 1.372-2.233 2.926-4.763 2.926-7.017 0-.694-.212-1.592-.561-2.987-.159-.636-.425-1.699-.437-1.999-.016-2.532 1.301-5.176 3.613-7.252 3.309-2.972 8.085-4.359 13.119-3.802 8.44.933 12.218 7.727 12.218 14.046 0 6.012-3.015 8.947-4.817 10.701-.343.334-.639.625-.869.88-2.803 3.112-.016 9.333.906 11.165a1.996 1.996 0 002.683.892 1.991 1.991 0 00.891-2.676c-1.547-3.08-2.072-6.084-1.505-6.713z"/><path d="M33.908 26.536c1.636-1.487 2.438-4.689 1.951-7.785-.598-3.798-2.918-6.795-6.533-8.439-4.614-2.097-9.318-1.433-12.585 1.778-2.46 2.418-3.373 5.725-2.271 8.229 1.229 2.795 3.332 4.636 5.921 5.183a7.293 7.293 0 006.404-1.739c2.489-2.263 2.061-4.963.532-6.635-1.403-1.533-3.752-2.301-5.26-.932a1.99 1.99 0 00-.13 2.816c.552.604 1.39.793 2.122.545.203.122.442.35.496.553.046.174-.217.489-.455.706a3.238 3.238 0 01-2.879.785c-1.294-.274-2.391-1.298-3.089-2.885-.356-.81.019-2.413 1.417-3.787.98-.962 3.731-2.984 8.118-.99 3.015 1.371 3.971 3.708 4.241 5.429.352 2.236-.345 3.902-.694 4.22a1.99 1.99 0 00-.13 2.817c.394.431.935.65 1.478.65.48.002.963-.17 1.346-.519z"/></svg>
