<?xml version="1.0" encoding="utf-8"?>
<!-- Generator: Adobe Illustrator 26.3.1, SVG Export Plug-In . SVG Version: 6.00 Build 0)  -->
<svg version="1.1" id="Logo_Keyline" xmlns="http://www.w3.org/2000/svg" xmlns:xlink="http://www.w3.org/1999/xlink" x="0px"
	 y="0px" viewBox="0 0 500 500" style="enable-background:new 0 0 500 500;" xml:space="preserve">
<style type="text/css">
	.st0{filter:url(#Adobe_OpacityMaskFilter);}
	.st1{fill:#FFFFFF;}
	.st2{mask:url(#SVGID_1_);}
	.st3{fill:#E52631;}
	.st4{fill:#FF9144;}
	.st5{fill:#FFE400;}
	.st6{fill:#00C100;}
	.st7{fill:#001B9E;}
	.st8{fill:#82008D;}
	.st9{fill:#010101;}
	.st10{fill:#673608;}
	.st11{fill:#49D9EF;}
	.st12{fill:#FFABC7;}
	.st13{fill:#FCF7F4;}
</style>
<defs>
	<filter id="Adobe_OpacityMaskFilter" filterUnits="userSpaceOnUse" x="-246.25" y="-7.5" width="738.91" height="735.56">
		<feColorMatrix  type="matrix" values="1 0 0 0 0  0 1 0 0 0  0 0 1 0 0  0 0 0 1 0"/>
	</filter>
</defs>
<mask maskUnits="userSpaceOnUse" x="-246.25" y="-7.5" width="738.91" height="735.56" id="SVGID_1_">
	<g class="st0">
		<rect x="13.07" y="16.74" class="st1" width="473.86" height="473.86"/>
		<path id="Path" class="st1" d="M467.67,492.21l-435.34,0c-13.53,0-24.54-11.01-24.54-24.54l0-435.34
			c0-13.53,11.01-24.54,24.54-24.55l435.34,0c13.53,0,24.54,11.01,24.54,24.55l0,435.34C492.21,481.2,481.2,492.21,467.67,492.21"/>
	</g>
</mask>
<g class="st2">
	<rect x="13.07" y="6.74" class="st3" width="478.3" height="78.98"/>
	<rect x="13.07" y="85.71" class="st4" width="478.3" height="78.98"/>
	<rect x="13.07" y="164.69" class="st5" width="478.3" height="78.98"/>
	<rect x="13.07" y="243.67" class="st6" width="478.3" height="78.98"/>
	<rect x="13.07" y="322.65" class="st7" width="478.3" height="78.98"/>
	<rect x="13.07" y="401.62" class="st8" width="478.3" height="78.98"/>
	
		<rect x="-126.71" y="226.55" transform="matrix(0.7119 0.7023 -0.7023 0.7119 247.1254 -79.8056)" class="st9" width="695.08" height="69.51"/>
	
		<rect x="-175.52" y="276.04" transform="matrix(0.7119 0.7023 -0.7023 0.7119 267.8141 -31.2694)" class="st10" width="695.08" height="69.51"/>
	
		<rect x="-224.34" y="325.52" transform="matrix(0.7119 0.7023 -0.7023 0.7119 288.5028 17.2668)" class="st11" width="695.08" height="69.51"/>
	
		<rect x="-273.15" y="375" transform="matrix(0.7119 0.7023 -0.7023 0.7119 309.1915 65.8031)" class="st12" width="695.08" height="69.51"/>
	
		<rect x="-321.96" y="424.49" transform="matrix(0.7119 0.7023 -0.7023 0.7119 329.8802 114.3393)" class="st13" width="695.08" height="69.51"/>
</g>
<path id="Keyline" class="st1" d="M467.67,497.5H32.33c-7.96,0-15.44-3.11-21.08-8.74c-5.64-5.64-8.74-13.13-8.74-21.09l0-435.34
	c0-7.96,3.11-15.44,8.74-21.08C16.88,5.6,24.37,2.5,32.33,2.5l435.34,0c16.45,0,29.83,13.38,29.83,29.83l0,435.34
	C497.5,484.12,484.12,497.5,467.67,497.5z M467.67,13.06l-435.34,0c-5.13,0-9.97,2.01-13.61,5.65c-3.64,3.64-5.65,8.48-5.65,13.61
	l0,435.34c0,5.14,2.01,9.97,5.65,13.61c3.64,3.64,8.48,5.65,13.61,5.65h435.34c10.62,0,19.26-8.64,19.26-19.26l0-435.34
	C486.93,21.71,478.29,13.07,467.67,13.06z"/>
<g id="COMIC_RELIEF_-_optical_tweak_1_">
	<path class="st1" d="M94.57,207.4c0,10.32,1.29,16.95,9.21,16.95s9.21-6.63,9.21-16.95v-12.53h26.34v5.34
		c0,27.08-8.66,46.05-35,46.05c-27.08,0-37.58-18.24-37.58-51.58v-15.84c0-33.34,10.5-51.58,37.58-51.58c26.34,0,35,18.97,35,46.05
		v5.34h-26.34v-12.53c0-10.32-1.29-16.95-9.21-16.95s-9.21,6.63-9.21,16.95V207.4z"/>
	<path class="st1" d="M219.57,193.95c0,33.34-10.5,52.31-37.58,52.31c-27.08,0-37.58-18.97-37.58-52.31v-14.37
		c0-33.34,10.5-52.31,37.58-52.31c27.08,0,37.58,18.97,37.58,52.31V193.95z M172.41,207.03c0,10.32,1.66,17.32,9.58,17.32
		c7.92,0,9.58-7,9.58-17.32v-40.53c0-10.32-1.66-17.32-9.58-17.32c-7.92,0-9.58,7-9.58,17.32V207.03z"/>
	<path class="st1" d="M272.34,187.69h0.74l11.05-58.95h34.08v116.05h-25.05v-66.13h-0.74l-12.71,66.13h-16.95l-13.08-66.13h-0.74
		v66.13h-23.76V128.75H260L272.34,187.69z"/>
	<path class="st1" d="M353.84,128.75v116.05h-27.08V128.75H353.84z"/>
	<path class="st1" d="M388.3,207.4c0,10.32,1.29,16.95,9.21,16.95c7.92,0,9.21-6.63,9.21-16.95v-12.53h26.34v5.34
		c0,27.08-8.66,46.05-35,46.05c-27.08,0-37.58-18.24-37.58-51.58v-15.84c0-33.34,10.5-51.58,37.58-51.58c26.34,0,35,18.97,35,46.05
		v5.34h-26.34v-12.53c0-10.32-1.29-16.95-9.21-16.95c-7.92,0-9.21,6.63-9.21,16.95V207.4z"/>
	<path class="st1" d="M113.17,371.28c-1.47-4.42-1.84-11.24-2.58-25.24c-0.55-11.05-3.32-16.76-11.79-16.76h-3.5v42H68.6V255.23
		h33.34c25.97,0,37.58,13.63,37.58,34.26c0,18.24-8.29,27.26-20.08,29.29c12.16,2.76,16.21,11.42,17.13,25.97
		c0.92,15.29,0.74,21.18,3.32,26.53H113.17z M97.88,307.91c10.87,0,15.1-3.5,15.1-15.29c0-10.5-4.24-15.66-15.1-15.66h-2.58v30.95
		H97.88z"/>
	<path class="st1" d="M204.45,371.28h-58.76V255.23h58.76v22.29h-32.24v23.76h23.95v22.11h-23.95v25.6h32.24V371.28z"/>
	<path class="st1" d="M237.82,255.23v93.76h31.31v22.29h-58.39V255.23H237.82z"/>
	<path class="st1" d="M301.28,255.23v116.05H274.2V255.23H301.28z"/>
	<path class="st1" d="M368.39,371.28h-58.76V255.23h58.76v22.29h-32.24v23.76h23.95v22.11h-23.95v25.6h32.24V371.28z"/>
	<path class="st1" d="M374.68,371.28V255.23h56.55v22.29h-29.47v26.89h21.55v21.92h-21.55v44.95H374.68z"/>
</g>
</svg>
